<?xml version="1.0" encoding="iso-8859-1"?>
<!-- Uploaded to: SVG Repo, www.svgrepo.com, Generator: SVG Repo Mixer Tools -->
<svg fill="#7A7A7A" version="1.1" id="Capa_1" xmlns="http://www.w3.org/2000/svg" xmlns:xlink="http://www.w3.org/1999/xlink" 
	 viewBox="0 0 60 60" xml:space="preserve">
<g>
	<rect x="23" y="13" width="14" height="2"/>
	<rect x="23" y="45" width="14" height="2"/>
	<rect x="13" y="23" width="2" height="14"/>
	<rect x="45" y="23" width="2" height="14"/>
	<path d="M43,19.357c0-1.3-1.058-2.357-2.357-2.357H39H21h-1.643C18.058,17,17,18.058,17,19.357V21v18v1.643
		c0,1.3,1.058,2.357,2.357,2.357H21h18h1.643c1.3,0,2.357-1.058,2.357-2.357V39V21V19.357z M36,23c0.552,0,1,0.448,1,1s-0.448,1-1,1
		s-1-0.448-1-1S35.448,23,36,23z M26,32c0.552,0,1,0.448,1,1s-0.448,1-1,1s-1-0.448-1-1S25.448,32,26,32z M24,31
		c-0.552,0-1-0.448-1-1s0.448-1,1-1s1,0.448,1,1S24.552,31,24,31z M26,28c-0.552,0-1-0.448-1-1s0.448-1,1-1s1,0.448,1,1
		S26.552,28,26,28z M28,29c0.552,0,1,0.448,1,1s-0.448,1-1,1s-1-0.448-1-1S27.448,29,28,29z M30,32c0.552,0,1,0.448,1,1
		s-0.448,1-1,1s-1-0.448-1-1S29.448,32,30,32z M30,28c-0.552,0-1-0.448-1-1s0.448-1,1-1s1,0.448,1,1S30.552,28,30,28z M32,29
		c0.552,0,1,0.448,1,1s-0.448,1-1,1s-1-0.448-1-1S31.448,29,32,29z M34,32c0.552,0,1,0.448,1,1s-0.448,1-1,1s-1-0.448-1-1
		S33.448,32,34,32z M34,28c-0.552,0-1-0.448-1-1s0.448-1,1-1s1,0.448,1,1S34.552,28,34,28z M36,29c0.552,0,1,0.448,1,1s-0.448,1-1,1
		s-1-0.448-1-1S35.448,29,36,29z M34,20c0.552,0,1,0.448,1,1s-0.448,1-1,1s-1-0.448-1-1S33.448,20,34,20z M32,23
		c0.552,0,1,0.448,1,1s-0.448,1-1,1s-1-0.448-1-1S31.448,23,32,23z M30,20c0.552,0,1,0.448,1,1s-0.448,1-1,1s-1-0.448-1-1
		S29.448,20,30,20z M28,23c0.552,0,1,0.448,1,1s-0.448,1-1,1s-1-0.448-1-1S27.448,23,28,23z M26,20c0.552,0,1,0.448,1,1
		s-0.448,1-1,1s-1-0.448-1-1S25.448,20,26,20z M24,23c0.552,0,1,0.448,1,1s-0.448,1-1,1s-1-0.448-1-1S23.448,23,24,23z M22,20
		c0.552,0,1,0.448,1,1s-0.448,1-1,1s-1-0.448-1-1S21.448,20,22,20z M22,26c0.552,0,1,0.448,1,1s-0.448,1-1,1s-1-0.448-1-1
		S21.448,26,22,26z M22,32c0.552,0,1,0.448,1,1s-0.448,1-1,1s-1-0.448-1-1S21.448,32,22,32z M22,40c-0.552,0-1-0.448-1-1
		s0.448-1,1-1s1,0.448,1,1S22.552,40,22,40z M24,37c-0.552,0-1-0.448-1-1s0.448-1,1-1s1,0.448,1,1S24.552,37,24,37z M26,40
		c-0.552,0-1-0.448-1-1s0.448-1,1-1s1,0.448,1,1S26.552,40,26,40z M28,37c-0.552,0-1-0.448-1-1s0.448-1,1-1s1,0.448,1,1
		S28.552,37,28,37z M30,40c-0.552,0-1-0.448-1-1s0.448-1,1-1s1,0.448,1,1S30.552,40,30,40z M32,37c-0.552,0-1-0.448-1-1s0.448-1,1-1
		s1,0.448,1,1S32.552,37,32,37z M34,40c-0.552,0-1-0.448-1-1s0.448-1,1-1s1,0.448,1,1S34.552,40,34,40z M36,37c-0.552,0-1-0.448-1-1
		s0.448-1,1-1s1,0.448,1,1S36.552,37,36,37z M38,40c-0.552,0-1-0.448-1-1s0.448-1,1-1s1,0.448,1,1S38.552,40,38,40z M38,34
		c-0.552,0-1-0.448-1-1s0.448-1,1-1s1,0.448,1,1S38.552,34,38,34z M38,28c-0.552,0-1-0.448-1-1s0.448-1,1-1s1,0.448,1,1
		S38.552,28,38,28z M38,22c-0.552,0-1-0.448-1-1s0.448-1,1-1s1,0.448,1,1S38.552,22,38,22z"/>
	<path d="M59,43h-2h-1c-0.552,0-1-0.447-1-1s0.448-1,1-1h1h2h1v-1h-1h-2h-1c-0.552,0-1-0.447-1-1s0.448-1,1-1h1h2h1v-1h-1h-2h-1
		c-0.552,0-1-0.447-1-1s0.448-1,1-1h1h2h1v-1h-1h-2h-1c-0.552,0-1-0.447-1-1s0.448-1,1-1h1h2h1v-1h-1h-2h-1c-0.552,0-1-0.447-1-1
		s0.448-1,1-1h1h2h1v-1h-1h-2h-1c-0.552,0-1-0.447-1-1s0.448-1,1-1h1h2h1v-1h-1h-2h-1c-0.552,0-1-0.447-1-1s0.448-1,1-1h1h2h1v-1h-1
		h-2h-1c-0.552,0-1-0.447-1-1s0.448-1,1-1h1h2h1v-1h-1h-2h-1c-0.552,0-1-0.447-1-1s0.448-1,1-1h1h2h1V5.499
		C60,2.467,57.533,0,54.501,0H46v1c0,1.654-1.346,3-3,3s-3-1.346-3-3V0H5.499C2.467,0,0,2.467,0,5.499V12h4v2H0v40.501
		C0,57.533,2.467,60,5.499,60H40v-1c0-1.654,1.346-3,3-3s3,1.346,3,3v1h8.501C57.533,60,60,57.533,60,54.501V43H59z M55,4
		c0.552,0,1,0.448,1,1s-0.448,1-1,1s-1-0.448-1-1S54.448,4,55,4z M4,36c0.552,0,1,0.448,1,1s-0.448,1-1,1s-1-0.448-1-1
		S3.448,36,4,36z M4,40c0.552,0,1,0.448,1,1s-0.448,1-1,1s-1-0.448-1-1S3.448,40,4,40z M4,44c0.552,0,1,0.448,1,1s-0.448,1-1,1
		s-1-0.448-1-1S3.448,44,4,44z M3,49c0-0.552,0.448-1,1-1s1,0.448,1,1s-0.448,1-1,1S3,49.552,3,49z M5,56c-0.552,0-1-0.448-1-1
		s0.448-1,1-1s1,0.448,1,1S5.552,56,5,56z M5,6C4.448,6,4,5.552,4,5s0.448-1,1-1s1,0.448,1,1S5.552,6,5,6z M11,57
		c-0.552,0-1-0.448-1-1s0.448-1,1-1s1,0.448,1,1S11.552,57,11,57z M15,57c-0.552,0-1-0.448-1-1s0.448-1,1-1s1,0.448,1,1
		S15.552,57,15,57z M19,57c-0.552,0-1-0.448-1-1s0.448-1,1-1s1,0.448,1,1S19.552,57,19,57z M23,57c-0.552,0-1-0.448-1-1s0.448-1,1-1
		s1,0.448,1,1S23.552,57,23,57z M51,27c0.552,0,1,0.447,1,1s-0.448,1-1,1h-2v2h2c0.552,0,1,0.447,1,1s-0.448,1-1,1h-2v2h2
		c0.552,0,1,0.447,1,1s-0.448,1-1,1h-2v2h-4v1.643C45,43.045,43.045,45,40.643,45H39v4h-2v2c0,0.553-0.448,1-1,1s-1-0.447-1-1v-2h-2
		v2c0,0.553-0.448,1-1,1s-1-0.447-1-1v-2h-2v2c0,0.553-0.448,1-1,1s-1-0.447-1-1v-2h-2v2c0,0.553-0.448,1-1,1s-1-0.447-1-1v-2h-2v-4
		h-1.643C16.955,45,15,43.045,15,40.643V39h-4v-2H9c-0.552,0-1-0.447-1-1s0.448-1,1-1h2v-2H9c-0.552,0-1-0.447-1-1s0.448-1,1-1h2v-2
		H9c-0.552,0-1-0.447-1-1s0.448-1,1-1h2v-2H9c-0.552,0-1-0.447-1-1s0.448-1,1-1h2v-2h4v-1.643C15,16.955,16.955,15,19.357,15H21v-4
		h2V9c0-0.553,0.448-1,1-1s1,0.447,1,1v2h2V9c0-0.553,0.448-1,1-1s1,0.447,1,1v2h2V9c0-0.553,0.448-1,1-1s1,0.447,1,1v2h2V9
		c0-0.553,0.448-1,1-1s1,0.447,1,1v2h2v4h1.643C43.045,15,45,16.955,45,19.357V21h4v2h2c0.552,0,1,0.447,1,1s-0.448,1-1,1h-2v2H51z
		 M55,56c-0.552,0-1-0.448-1-1s0.448-1,1-1s1,0.448,1,1S55.552,56,55,56z"/>
</g>
</svg>