<svg id="svg" version="1.1" xmlns="http://www.w3.org/2000/svg" xmlns:xlink="http://www.w3.org/1999/xlink" width="400" height="98.73060648801128" viewBox="0, 0, 400,98.73060648801128"><g id="svgg"><path id="path0" d="M89.292 24.623 C 89.865 24.656,90.802 24.656,91.375 24.623 C 91.948 24.591,91.479 24.564,90.333 24.564 C 89.188 24.564,88.719 24.591,89.292 24.623 M92.958 24.806 C 93.291 25.154,93.420 25.134,93.276 24.757 C 93.222 24.616,93.062 24.500,92.922 24.500 C 92.706 24.500,92.712 24.547,92.958 24.806 M165.000 28.750 L 165.000 31.833 162.268 31.833 C 159.930 31.833,159.521 31.871,159.434 32.097 C 159.221 32.653,159.322 43.973,159.542 44.115 C 159.656 44.189,160.931 44.275,162.375 44.306 L 165.000 44.363 165.000 51.598 C 165.000 58.722,165.005 58.833,165.333 58.833 C 165.635 58.833,165.667 58.944,165.667 60.000 C 165.667 60.926,165.718 61.167,165.917 61.167 C 166.106 61.167,166.167 61.370,166.167 62.000 C 166.167 62.630,166.228 62.833,166.417 62.833 C 166.554 62.833,166.667 62.953,166.667 63.099 C 166.667 63.245,166.817 63.404,167.000 63.452 C 167.236 63.513,167.333 63.679,167.333 64.019 C 167.333 64.335,167.419 64.500,167.583 64.500 C 167.722 64.500,167.833 64.648,167.833 64.833 C 167.833 65.017,167.938 65.167,168.066 65.167 C 168.193 65.167,168.341 65.279,168.394 65.417 C 168.446 65.554,168.604 65.667,168.745 65.667 C 168.885 65.667,169.000 65.779,169.000 65.917 C 169.000 66.054,169.104 66.167,169.231 66.167 C 169.357 66.167,169.500 66.317,169.548 66.500 C 169.612 66.743,169.776 66.833,170.151 66.833 C 170.498 66.833,170.667 66.915,170.667 67.083 C 170.667 67.221,170.761 67.333,170.877 67.333 C 170.992 67.333,171.180 67.483,171.295 67.667 C 171.453 67.920,171.683 68.000,172.251 68.000 C 172.806 68.000,173.000 68.065,173.000 68.250 C 173.000 68.439,173.204 68.500,173.833 68.500 C 174.463 68.500,174.667 68.561,174.667 68.750 C 174.667 68.969,175.620 69.000,182.250 69.000 L 189.833 69.000 189.833 62.583 L 189.833 56.167 185.583 56.167 C 181.444 56.167,181.333 56.158,181.333 55.833 C 181.333 55.573,181.222 55.500,180.828 55.500 C 180.533 55.500,180.283 55.396,180.227 55.250 C 180.174 55.112,180.027 55.000,179.899 55.000 C 179.705 55.000,179.667 54.114,179.667 49.667 L 179.667 44.333 184.486 44.333 C 187.137 44.333,189.425 44.288,189.570 44.232 C 189.804 44.142,189.833 43.435,189.833 37.982 L 189.833 31.833 184.750 31.833 L 179.667 31.833 179.667 28.750 L 179.667 25.667 172.333 25.667 L 165.000 25.667 165.000 28.750 M132.333 31.583 C 132.333 31.786,132.065 31.833,130.917 31.833 C 129.611 31.833,129.500 31.859,129.500 32.167 C 129.500 32.465,129.389 32.500,128.434 32.500 C 127.641 32.500,127.344 32.564,127.273 32.750 C 127.217 32.896,126.967 33.000,126.672 33.000 C 126.334 33.000,126.167 33.083,126.167 33.250 C 126.167 33.425,125.991 33.500,125.583 33.500 C 125.111 33.500,125.000 33.563,125.000 33.833 C 125.000 34.103,124.889 34.167,124.417 34.167 C 124.009 34.167,123.833 34.242,123.833 34.417 C 123.833 34.554,123.721 34.667,123.583 34.667 C 123.446 34.667,123.333 34.779,123.333 34.917 C 123.333 35.054,123.214 35.167,123.068 35.167 C 122.922 35.167,122.763 35.317,122.715 35.500 C 122.667 35.683,122.524 35.833,122.397 35.833 C 122.270 35.833,122.167 35.946,122.167 36.083 C 122.167 36.221,122.059 36.333,121.928 36.333 C 121.797 36.333,121.642 36.483,121.583 36.667 C 121.525 36.850,121.370 37.000,121.239 37.000 C 121.107 37.000,121.000 37.112,121.000 37.250 C 121.000 37.387,120.888 37.500,120.750 37.500 C 120.575 37.500,120.500 37.676,120.500 38.083 C 120.500 38.556,120.437 38.667,120.167 38.667 C 119.897 38.667,119.833 38.778,119.833 39.250 C 119.833 39.657,119.758 39.833,119.583 39.833 C 119.368 39.833,119.333 40.371,119.333 43.672 C 119.333 46.930,119.371 47.525,119.583 47.606 C 119.728 47.662,119.833 47.911,119.833 48.200 C 119.833 48.558,119.927 48.722,120.167 48.785 C 120.403 48.847,120.500 49.012,120.500 49.353 C 120.500 49.669,120.586 49.833,120.750 49.833 C 120.889 49.833,121.000 49.981,121.000 50.167 C 121.000 50.355,121.111 50.500,121.255 50.500 C 121.396 50.500,121.554 50.612,121.606 50.750 C 121.659 50.887,121.807 51.000,121.934 51.000 C 122.062 51.000,122.167 51.104,122.167 51.232 C 122.167 51.360,122.279 51.508,122.417 51.560 C 122.554 51.613,122.667 51.771,122.667 51.911 C 122.667 52.056,122.812 52.167,123.000 52.167 C 123.185 52.167,123.333 52.278,123.333 52.417 C 123.333 52.582,123.499 52.667,123.822 52.667 C 124.164 52.667,124.343 52.766,124.417 53.000 C 124.504 53.274,124.669 53.333,125.345 53.333 C 125.964 53.333,126.167 53.395,126.167 53.583 C 126.167 53.772,126.370 53.833,127.000 53.833 C 127.630 53.833,127.833 53.894,127.833 54.083 C 127.833 54.289,128.127 54.333,129.481 54.333 C 130.988 54.333,131.135 54.362,131.215 54.667 C 131.297 54.981,131.442 55.000,133.818 55.000 C 135.943 55.000,136.333 55.039,136.333 55.250 C 136.333 55.461,136.722 55.500,138.833 55.500 C 140.843 55.500,141.333 55.545,141.333 55.729 C 141.333 56.020,142.065 56.167,143.521 56.167 C 144.428 56.167,144.667 56.219,144.667 56.417 C 144.667 56.556,144.815 56.667,145.000 56.667 C 145.183 56.667,145.333 56.774,145.333 56.905 C 145.333 57.037,145.183 57.192,145.000 57.250 C 144.817 57.308,144.667 57.463,144.667 57.595 C 144.667 57.749,144.490 57.833,144.167 57.833 C 143.833 57.833,143.667 57.917,143.667 58.083 C 143.667 58.298,143.139 58.333,139.917 58.333 C 136.694 58.333,136.167 58.298,136.167 58.083 C 136.167 57.917,136.000 57.833,135.667 57.833 C 135.344 57.833,135.167 57.749,135.167 57.595 C 135.167 57.463,135.017 57.308,134.833 57.250 C 134.559 57.163,134.500 56.998,134.500 56.320 L 134.500 55.496 127.208 55.540 L 119.917 55.583 119.869 57.139 C 119.824 58.585,119.844 58.701,120.160 58.783 C 120.461 58.862,120.500 59.005,120.500 60.019 C 120.500 60.928,120.552 61.167,120.750 61.167 C 120.925 61.167,121.000 61.343,121.000 61.750 C 121.000 62.162,121.075 62.333,121.254 62.333 C 121.403 62.333,121.550 62.540,121.608 62.833 C 121.663 63.108,121.811 63.333,121.938 63.333 C 122.064 63.333,122.167 63.483,122.167 63.667 C 122.167 63.852,122.278 64.000,122.417 64.000 C 122.554 64.000,122.667 64.112,122.667 64.250 C 122.667 64.389,122.815 64.500,123.000 64.500 C 123.222 64.500,123.333 64.611,123.333 64.833 C 123.333 65.019,123.444 65.167,123.583 65.167 C 123.721 65.167,123.833 65.279,123.833 65.417 C 123.833 65.554,123.946 65.667,124.083 65.667 C 124.221 65.667,124.333 65.779,124.333 65.917 C 124.333 66.056,124.481 66.167,124.667 66.167 C 124.889 66.167,125.000 66.278,125.000 66.500 C 125.000 66.770,125.111 66.833,125.583 66.833 C 125.991 66.833,126.167 66.909,126.167 67.083 C 126.167 67.248,126.331 67.333,126.647 67.333 C 126.988 67.333,127.153 67.431,127.215 67.667 C 127.278 67.909,127.442 68.000,127.818 68.000 C 128.165 68.000,128.333 68.082,128.333 68.250 C 128.333 68.439,128.537 68.500,129.167 68.500 C 129.796 68.500,130.000 68.561,130.000 68.750 C 130.000 68.948,130.241 69.000,131.167 69.000 C 132.222 69.000,132.333 69.032,132.333 69.333 C 132.333 69.648,132.444 69.667,134.333 69.667 C 136.000 69.667,136.333 69.708,136.333 69.917 C 136.333 70.132,136.871 70.167,140.172 70.167 C 143.430 70.167,144.025 70.129,144.106 69.917 C 144.184 69.715,144.560 69.667,146.033 69.667 C 147.724 69.667,147.871 69.641,147.952 69.333 C 148.028 69.041,148.179 69.000,149.186 69.000 C 150.095 69.000,150.333 68.948,150.333 68.750 C 150.333 68.575,150.509 68.500,150.917 68.500 C 151.324 68.500,151.500 68.425,151.500 68.250 C 151.500 68.089,151.663 67.999,151.958 67.998 C 152.672 67.994,153.167 67.817,153.167 67.564 C 153.167 67.418,153.353 67.333,153.672 67.333 C 153.967 67.333,154.217 67.229,154.273 67.083 C 154.326 66.946,154.473 66.833,154.601 66.833 C 154.729 66.833,154.833 66.683,154.833 66.500 C 154.833 66.278,154.944 66.167,155.167 66.167 C 155.352 66.167,155.500 66.056,155.500 65.917 C 155.500 65.750,155.667 65.667,156.000 65.667 C 156.315 65.667,156.500 65.581,156.500 65.436 C 156.500 65.309,156.650 65.166,156.833 65.118 C 157.017 65.070,157.167 64.912,157.167 64.766 C 157.167 64.620,157.279 64.500,157.417 64.500 C 157.583 64.500,157.667 64.333,157.667 64.000 C 157.667 63.667,157.750 63.500,157.917 63.500 C 158.054 63.500,158.167 63.356,158.167 63.180 C 158.167 62.684,158.346 62.333,158.601 62.333 C 158.755 62.333,158.833 62.137,158.833 61.750 C 158.833 61.343,158.909 61.167,159.083 61.167 C 159.298 61.167,159.333 60.648,159.333 57.500 C 159.333 54.352,159.298 53.833,159.083 53.833 C 158.909 53.833,158.833 53.657,158.833 53.250 C 158.833 52.838,158.759 52.667,158.579 52.667 C 158.430 52.667,158.284 52.460,158.225 52.167 C 158.170 51.892,158.022 51.667,157.896 51.667 C 157.770 51.667,157.667 51.517,157.667 51.333 C 157.667 51.148,157.556 51.000,157.417 51.000 C 157.279 51.000,157.167 50.887,157.167 50.750 C 157.167 50.611,157.019 50.500,156.833 50.500 C 156.611 50.500,156.500 50.389,156.500 50.167 C 156.500 49.981,156.389 49.833,156.250 49.833 C 156.112 49.833,156.000 49.721,156.000 49.583 C 156.000 49.409,155.824 49.333,155.417 49.333 C 155.009 49.333,154.833 49.258,154.833 49.083 C 154.833 48.909,154.657 48.833,154.250 48.833 C 153.778 48.833,153.667 48.770,153.667 48.500 C 153.667 48.243,153.556 48.167,153.184 48.167 C 152.910 48.167,152.661 48.059,152.606 47.917 C 152.539 47.740,152.264 47.667,151.672 47.667 C 151.075 47.667,150.833 47.601,150.833 47.439 C 150.833 47.201,149.832 47.000,148.643 47.000 C 148.183 47.000,148.000 46.929,148.000 46.750 C 148.000 46.540,147.639 46.500,145.750 46.500 C 143.861 46.500,143.500 46.460,143.500 46.250 C 143.500 46.039,143.111 46.000,141.000 46.000 C 138.974 46.000,138.500 45.956,138.500 45.768 C 138.500 45.408,138.110 45.333,136.236 45.333 C 134.804 45.333,134.500 45.290,134.500 45.083 C 134.500 44.946,134.387 44.833,134.250 44.833 C 134.112 44.833,134.000 44.721,134.000 44.583 C 134.000 44.446,133.887 44.333,133.750 44.333 C 133.611 44.333,133.500 44.185,133.500 44.000 C 133.500 43.815,133.611 43.667,133.750 43.667 C 133.887 43.667,134.000 43.554,134.000 43.417 C 134.000 43.215,134.261 43.167,135.349 43.167 C 136.558 43.167,136.707 43.132,136.785 42.833 C 136.861 42.544,137.012 42.500,137.925 42.500 C 138.831 42.500,138.992 42.546,139.083 42.833 C 139.180 43.137,139.336 43.167,140.845 43.167 C 142.205 43.167,142.500 43.211,142.500 43.417 C 142.500 43.554,142.612 43.667,142.750 43.667 C 142.887 43.667,143.000 43.779,143.000 43.917 C 143.000 44.056,143.148 44.167,143.333 44.167 C 143.626 44.167,143.667 44.278,143.667 45.083 L 143.667 46.000 150.895 46.000 L 158.123 46.000 158.225 45.375 C 158.397 44.328,158.153 41.500,157.892 41.500 C 157.733 41.500,157.667 41.255,157.667 40.667 C 157.667 40.037,157.606 39.833,157.417 39.833 C 157.242 39.833,157.167 39.657,157.167 39.250 C 157.167 38.778,157.103 38.667,156.833 38.667 C 156.563 38.667,156.500 38.556,156.500 38.083 C 156.500 37.676,156.425 37.500,156.250 37.500 C 156.112 37.500,156.000 37.387,156.000 37.250 C 156.000 37.112,155.887 37.000,155.750 37.000 C 155.612 37.000,155.500 36.880,155.500 36.734 C 155.500 36.588,155.350 36.430,155.167 36.382 C 154.983 36.334,154.833 36.191,154.833 36.064 C 154.833 35.937,154.721 35.833,154.583 35.833 C 154.446 35.833,154.333 35.714,154.333 35.568 C 154.333 35.422,154.183 35.263,154.000 35.215 C 153.817 35.167,153.667 35.024,153.667 34.897 C 153.667 34.770,153.554 34.667,153.417 34.667 C 153.279 34.667,153.167 34.554,153.167 34.417 C 153.167 34.242,152.991 34.167,152.583 34.167 C 152.111 34.167,152.000 34.103,152.000 33.833 C 152.000 33.563,151.889 33.500,151.417 33.500 C 151.009 33.500,150.833 33.425,150.833 33.250 C 150.833 33.085,150.669 33.000,150.351 33.000 C 150.076 33.000,149.828 32.893,149.773 32.750 C 149.701 32.563,149.402 32.500,148.589 32.500 C 147.611 32.500,147.500 32.466,147.500 32.167 C 147.500 31.859,147.389 31.833,146.083 31.833 C 144.935 31.833,144.667 31.786,144.667 31.583 C 144.667 31.366,143.870 31.333,138.500 31.333 C 133.130 31.333,132.333 31.366,132.333 31.583 M214.167 31.583 C 214.167 31.772,213.963 31.833,213.333 31.833 C 212.611 31.833,212.500 31.878,212.500 32.167 C 212.500 32.437,212.389 32.500,211.917 32.500 C 211.509 32.500,211.333 32.575,211.333 32.750 C 211.333 32.917,211.166 33.000,210.828 33.000 C 210.533 33.000,210.283 33.104,210.227 33.250 C 210.174 33.387,210.027 33.500,209.899 33.500 C 209.771 33.500,209.667 33.650,209.667 33.833 C 209.667 34.056,209.556 34.167,209.333 34.167 C 209.148 34.167,209.000 34.278,209.000 34.417 C 209.000 34.554,208.887 34.667,208.750 34.667 C 208.612 34.667,208.500 34.777,208.500 34.911 C 208.500 35.045,208.350 35.235,208.167 35.333 C 207.972 35.438,207.833 35.682,207.833 35.923 C 207.833 36.177,207.738 36.333,207.583 36.333 C 207.409 36.333,207.333 36.509,207.333 36.917 C 207.333 37.324,207.258 37.500,207.083 37.500 C 206.909 37.500,206.833 37.676,206.833 38.083 C 206.833 38.556,206.770 38.667,206.500 38.667 C 206.178 38.667,206.167 38.556,206.167 35.250 L 206.167 31.833 199.167 31.833 L 192.167 31.833 192.167 50.417 L 192.167 69.000 199.500 69.000 L 206.833 69.000 206.833 57.518 C 206.833 47.465,206.864 46.024,207.083 45.940 C 207.229 45.884,207.333 45.634,207.333 45.339 C 207.333 45.001,207.416 44.833,207.583 44.833 C 207.721 44.833,207.833 44.724,207.833 44.591 C 207.833 44.446,208.067 44.305,208.417 44.239 C 208.751 44.176,209.000 44.031,209.000 43.898 C 209.000 43.712,209.441 43.667,211.250 43.667 C 213.092 43.667,213.500 43.710,213.500 43.905 C 213.500 44.037,213.650 44.192,213.833 44.250 C 214.017 44.308,214.167 44.463,214.167 44.595 C 214.167 44.726,214.279 44.833,214.417 44.833 C 214.554 44.833,214.667 44.946,214.667 45.083 C 214.667 45.221,214.779 45.333,214.917 45.333 C 215.130 45.333,215.167 45.795,215.167 48.486 C 215.167 50.221,215.212 51.758,215.268 51.903 C 215.358 52.138,216.160 52.167,222.601 52.167 L 229.833 52.167 229.833 46.250 C 229.833 41.102,229.801 40.333,229.583 40.333 C 229.387 40.333,229.333 40.101,229.333 39.245 C 229.333 38.431,229.270 38.132,229.083 38.060 C 228.929 38.001,228.833 37.748,228.833 37.399 C 228.833 37.056,228.702 36.702,228.500 36.500 C 228.317 36.317,228.167 36.092,228.167 36.000 C 228.167 35.908,228.054 35.833,227.917 35.833 C 227.748 35.833,227.667 35.665,227.667 35.318 C 227.667 34.942,227.576 34.778,227.333 34.715 C 227.150 34.667,227.000 34.524,227.000 34.397 C 227.000 34.270,226.887 34.167,226.750 34.167 C 226.612 34.167,226.499 34.073,226.497 33.958 C 226.492 33.600,225.723 33.000,225.268 33.000 C 224.993 33.000,224.833 32.908,224.833 32.750 C 224.833 32.575,224.657 32.500,224.250 32.500 C 223.778 32.500,223.667 32.437,223.667 32.167 C 223.667 31.878,223.556 31.833,222.833 31.833 C 222.204 31.833,222.000 31.772,222.000 31.583 C 222.000 31.368,221.454 31.333,218.083 31.333 C 214.713 31.333,214.167 31.368,214.167 31.583 M246.833 31.583 C 246.833 31.780,246.603 31.833,245.761 31.833 C 244.836 31.833,244.675 31.879,244.583 32.167 C 244.496 32.441,244.331 32.500,243.655 32.500 C 243.036 32.500,242.833 32.562,242.833 32.750 C 242.833 32.935,242.638 33.000,242.078 33.000 C 241.561 33.000,241.293 33.079,241.227 33.250 C 241.174 33.387,240.954 33.500,240.738 33.500 C 240.516 33.500,240.268 33.645,240.167 33.833 C 240.069 34.017,239.878 34.167,239.744 34.167 C 239.610 34.167,239.500 34.279,239.500 34.417 C 239.500 34.578,239.337 34.668,239.042 34.670 C 238.587 34.672,237.833 35.283,237.833 35.648 C 237.833 35.750,237.683 35.833,237.500 35.833 C 237.315 35.833,237.167 35.944,237.167 36.083 C 237.167 36.221,237.054 36.333,236.917 36.333 C 236.778 36.333,236.667 36.481,236.667 36.667 C 236.667 36.852,236.556 37.000,236.417 37.000 C 236.279 37.000,236.167 37.112,236.167 37.250 C 236.167 37.389,236.019 37.500,235.833 37.500 C 235.648 37.500,235.500 37.611,235.500 37.750 C 235.500 37.887,235.387 38.000,235.250 38.000 C 235.111 38.000,235.000 38.148,235.000 38.333 C 235.000 38.519,234.889 38.667,234.750 38.667 C 234.612 38.667,234.500 38.770,234.500 38.897 C 234.500 39.024,234.350 39.167,234.167 39.215 C 233.924 39.278,233.833 39.442,233.833 39.818 C 233.833 40.165,233.752 40.333,233.583 40.333 C 233.409 40.333,233.333 40.509,233.333 40.917 C 233.333 41.389,233.270 41.500,233.000 41.500 C 232.743 41.500,232.667 41.611,232.667 41.982 C 232.667 42.257,232.559 42.506,232.417 42.560 C 232.240 42.628,232.167 42.903,232.167 43.495 C 232.167 44.129,232.106 44.333,231.917 44.333 C 231.721 44.333,231.667 44.563,231.667 45.397 C 231.667 46.321,231.623 46.473,231.333 46.548 C 231.011 46.632,231.000 46.776,231.000 50.750 C 231.000 54.724,231.011 54.868,231.333 54.952 C 231.631 55.030,231.667 55.179,231.667 56.358 C 231.667 57.377,231.724 57.699,231.917 57.773 C 232.087 57.838,232.167 58.105,232.167 58.606 C 232.167 59.108,232.247 59.374,232.417 59.440 C 232.562 59.495,232.667 59.745,232.667 60.033 C 232.667 60.391,232.761 60.556,233.000 60.618 C 233.236 60.680,233.333 60.846,233.333 61.186 C 233.333 61.502,233.419 61.667,233.583 61.667 C 233.752 61.667,233.833 61.835,233.833 62.182 C 233.833 62.558,233.924 62.722,234.167 62.785 C 234.350 62.833,234.500 62.978,234.500 63.108 C 234.500 63.238,234.612 63.387,234.750 63.440 C 234.887 63.492,235.000 63.640,235.000 63.768 C 235.000 63.896,235.112 64.000,235.250 64.000 C 235.387 64.000,235.500 64.112,235.500 64.250 C 235.500 64.389,235.648 64.500,235.833 64.500 C 236.056 64.500,236.167 64.611,236.167 64.833 C 236.167 65.019,236.278 65.167,236.417 65.167 C 236.554 65.167,236.667 65.279,236.667 65.417 C 236.667 65.554,236.771 65.667,236.899 65.667 C 237.027 65.667,237.174 65.779,237.227 65.917 C 237.283 66.063,237.533 66.167,237.828 66.167 C 238.222 66.167,238.333 66.240,238.333 66.500 C 238.333 66.722,238.444 66.833,238.667 66.833 C 238.852 66.833,239.000 66.944,239.000 67.083 C 239.000 67.250,239.167 67.333,239.500 67.333 C 239.816 67.333,240.000 67.419,240.000 67.566 C 240.000 67.820,240.350 68.000,240.847 68.000 C 241.023 68.000,241.167 68.112,241.167 68.250 C 241.167 68.439,241.370 68.500,242.000 68.500 C 242.630 68.500,242.833 68.561,242.833 68.750 C 242.833 68.948,243.074 69.000,244.000 69.000 C 245.056 69.000,245.167 69.032,245.167 69.333 C 245.167 69.648,245.278 69.667,247.167 69.667 C 248.833 69.667,249.167 69.708,249.167 69.917 C 249.167 70.131,249.648 70.167,252.500 70.167 C 255.352 70.167,255.833 70.131,255.833 69.917 C 255.833 69.709,256.159 69.667,257.766 69.667 C 259.558 69.667,259.704 69.642,259.785 69.333 C 259.861 69.044,260.012 69.000,260.936 69.000 C 261.771 69.000,262.000 68.946,262.000 68.750 C 262.000 68.561,262.204 68.500,262.833 68.500 C 263.463 68.500,263.667 68.439,263.667 68.250 C 263.667 68.075,263.843 68.000,264.250 68.000 C 264.722 68.000,264.833 67.937,264.833 67.667 C 264.833 67.397,264.944 67.333,265.417 67.333 C 265.824 67.333,266.000 67.258,266.000 67.083 C 266.000 66.915,266.168 66.833,266.516 66.833 C 266.891 66.833,267.055 66.743,267.118 66.500 C 267.166 66.317,267.309 66.167,267.436 66.167 C 267.563 66.167,267.667 66.054,267.667 65.917 C 267.667 65.749,267.834 65.667,268.172 65.667 C 268.467 65.667,268.717 65.563,268.773 65.417 C 268.826 65.279,268.973 65.167,269.101 65.167 C 269.229 65.167,269.333 65.017,269.333 64.833 C 269.333 64.611,269.444 64.500,269.667 64.500 C 269.852 64.500,270.000 64.389,270.000 64.250 C 270.000 64.112,270.112 64.000,270.250 64.000 C 270.425 64.000,270.500 63.824,270.500 63.417 C 270.500 63.009,270.575 62.833,270.750 62.833 C 270.887 62.833,271.000 62.730,271.000 62.603 C 271.000 62.476,271.150 62.333,271.333 62.285 C 271.576 62.222,271.667 62.058,271.667 61.682 C 271.667 61.335,271.748 61.167,271.917 61.167 C 272.090 61.167,272.167 60.993,272.167 60.603 C 272.167 60.179,272.250 60.017,272.500 59.952 C 272.799 59.874,272.833 59.724,272.833 58.516 C 272.833 57.428,272.882 57.167,273.083 57.167 C 273.285 57.167,273.333 56.908,273.333 55.841 L 273.333 54.515 272.792 54.418 C 272.494 54.365,269.212 54.342,265.500 54.369 L 258.750 54.417 258.700 55.292 C 258.663 55.921,258.582 56.167,258.408 56.167 C 258.251 56.167,258.167 56.341,258.167 56.667 C 258.167 57.048,258.091 57.167,257.847 57.167 C 257.350 57.167,257.000 57.346,257.000 57.601 C 257.000 57.775,256.734 57.833,255.934 57.833 C 255.141 57.833,254.844 57.897,254.773 58.083 C 254.694 58.290,254.247 58.333,252.190 58.333 C 250.132 58.333,249.686 58.290,249.606 58.083 C 249.535 57.897,249.238 57.833,248.441 57.833 C 247.512 57.833,247.361 57.790,247.285 57.500 C 247.227 57.279,247.058 57.167,246.783 57.167 C 246.555 57.167,246.326 57.054,246.273 56.917 C 246.220 56.779,246.062 56.667,245.922 56.667 C 245.782 56.667,245.667 56.554,245.667 56.417 C 245.667 56.279,245.554 56.167,245.417 56.167 C 245.228 56.167,245.167 55.963,245.167 55.333 C 245.167 54.611,245.122 54.500,244.833 54.500 C 244.611 54.500,244.500 54.389,244.500 54.168 C 244.500 53.838,244.639 53.835,258.875 53.793 L 273.250 53.750 273.295 49.621 C 273.333 46.056,273.305 45.479,273.086 45.395 C 272.897 45.322,272.833 45.031,272.833 44.232 C 272.833 43.278,272.799 43.167,272.500 43.167 C 272.211 43.167,272.167 43.056,272.167 42.333 C 272.167 41.704,272.106 41.500,271.917 41.500 C 271.744 41.500,271.667 41.326,271.667 40.936 C 271.667 40.512,271.584 40.351,271.333 40.285 C 271.091 40.222,271.000 40.058,271.000 39.682 C 271.000 39.335,270.918 39.167,270.750 39.167 C 270.612 39.167,270.500 39.054,270.500 38.917 C 270.500 38.779,270.387 38.667,270.250 38.667 C 270.082 38.667,270.000 38.498,270.000 38.151 C 270.000 37.776,269.909 37.612,269.667 37.548 C 269.483 37.500,269.333 37.357,269.333 37.231 C 269.333 37.104,269.221 37.000,269.083 37.000 C 268.946 37.000,268.833 36.915,268.833 36.811 C 268.833 36.588,268.054 35.833,267.825 35.833 C 267.738 35.833,267.667 35.724,267.667 35.591 C 267.667 35.446,267.433 35.305,267.083 35.239 C 266.749 35.176,266.500 35.031,266.500 34.898 C 266.500 34.771,266.387 34.667,266.250 34.667 C 266.112 34.667,266.000 34.554,266.000 34.417 C 266.000 34.244,265.826 34.167,265.436 34.167 C 265.012 34.167,264.851 34.084,264.785 33.833 C 264.722 33.591,264.558 33.500,264.182 33.500 C 263.835 33.500,263.667 33.418,263.667 33.250 C 263.667 33.061,263.463 33.000,262.833 33.000 C 262.204 33.000,262.000 32.939,262.000 32.750 C 262.000 32.561,261.796 32.500,261.167 32.500 C 260.444 32.500,260.333 32.456,260.333 32.167 C 260.333 31.867,260.222 31.833,259.245 31.833 C 258.431 31.833,258.132 31.770,258.060 31.583 C 257.978 31.368,257.192 31.333,252.399 31.333 C 247.563 31.333,246.833 31.366,246.833 31.583 M290.833 31.583 C 290.833 31.785,290.572 31.833,289.484 31.833 C 288.276 31.833,288.126 31.868,288.048 32.167 C 287.976 32.443,287.821 32.500,287.147 32.500 C 286.535 32.500,286.333 32.562,286.333 32.750 C 286.333 32.925,286.157 33.000,285.750 33.000 C 285.343 33.000,285.167 33.075,285.167 33.250 C 285.167 33.418,284.998 33.500,284.651 33.500 C 284.276 33.500,284.112 33.591,284.048 33.833 C 283.987 34.069,283.821 34.167,283.481 34.167 C 283.165 34.167,283.000 34.252,283.000 34.417 C 283.000 34.578,282.838 34.667,282.541 34.667 C 282.228 34.667,281.909 34.854,281.546 35.250 C 281.251 35.571,280.933 35.833,280.838 35.833 C 280.744 35.833,280.667 35.946,280.667 36.083 C 280.667 36.221,280.554 36.333,280.417 36.333 C 280.278 36.333,280.167 36.481,280.167 36.667 C 280.167 36.889,280.056 37.000,279.833 37.000 C 279.648 37.000,279.500 37.111,279.500 37.250 C 279.500 37.387,279.387 37.500,279.250 37.500 C 279.112 37.500,279.000 37.612,279.000 37.750 C 279.000 37.887,278.887 38.000,278.750 38.000 C 278.611 38.000,278.500 38.148,278.500 38.333 C 278.500 38.556,278.389 38.667,278.167 38.667 C 277.897 38.667,277.833 38.778,277.833 39.250 C 277.833 39.657,277.758 39.833,277.583 39.833 C 277.419 39.833,277.333 39.998,277.333 40.314 C 277.333 40.654,277.236 40.820,277.000 40.882 C 276.757 40.945,276.667 41.109,276.667 41.484 C 276.667 41.832,276.585 42.000,276.417 42.000 C 276.218 42.000,276.167 42.241,276.167 43.167 C 276.167 44.093,276.115 44.333,275.917 44.333 C 275.709 44.333,275.667 44.657,275.667 46.250 L 275.667 48.167 283.000 48.167 L 290.333 48.167 290.333 47.101 C 290.333 46.308,290.397 46.011,290.583 45.940 C 290.729 45.884,290.833 45.634,290.833 45.339 C 290.833 44.872,290.878 44.833,291.417 44.833 C 291.824 44.833,292.000 44.758,292.000 44.583 C 292.000 44.368,292.546 44.333,295.917 44.333 C 299.287 44.333,299.833 44.368,299.833 44.583 C 299.833 44.722,299.981 44.833,300.167 44.833 C 300.352 44.833,300.500 44.944,300.500 45.083 C 300.500 45.221,300.612 45.333,300.750 45.333 C 300.917 45.333,301.000 45.501,301.000 45.839 C 301.000 46.134,301.104 46.384,301.250 46.440 C 301.425 46.507,301.500 46.780,301.500 47.351 L 301.500 48.167 299.068 48.167 C 296.776 48.167,296.630 48.186,296.548 48.500 C 296.465 48.818,296.321 48.833,293.397 48.833 C 290.785 48.833,290.333 48.870,290.333 49.083 C 290.333 49.295,289.935 49.333,287.750 49.333 C 285.565 49.333,285.167 49.372,285.167 49.583 C 285.167 49.782,284.926 49.833,284.000 49.833 C 283.056 49.833,282.770 49.897,282.500 50.167 C 282.277 50.390,281.944 50.500,281.495 50.500 C 281.051 50.500,280.790 50.585,280.727 50.750 C 280.673 50.891,280.425 51.000,280.160 51.000 C 279.836 51.000,279.656 51.104,279.583 51.333 C 279.525 51.517,279.370 51.667,279.239 51.667 C 279.107 51.667,279.000 51.779,279.000 51.917 C 279.000 52.091,278.824 52.167,278.417 52.167 C 278.009 52.167,277.833 52.242,277.833 52.417 C 277.833 52.554,277.721 52.667,277.583 52.667 C 277.444 52.667,277.333 52.815,277.333 53.000 C 277.333 53.188,277.222 53.333,277.078 53.333 C 276.938 53.333,276.780 53.446,276.727 53.583 C 276.674 53.721,276.527 53.833,276.399 53.833 C 276.245 53.833,276.167 54.029,276.167 54.417 C 276.167 54.824,276.091 55.000,275.917 55.000 C 275.742 55.000,275.667 55.176,275.667 55.583 C 275.667 56.056,275.603 56.167,275.333 56.167 C 275.011 56.167,275.000 56.278,275.000 59.500 C 275.000 62.722,275.011 62.833,275.333 62.833 C 275.622 62.833,275.667 62.944,275.667 63.667 C 275.667 64.296,275.728 64.500,275.917 64.500 C 276.078 64.500,276.168 64.663,276.170 64.958 C 276.172 65.413,276.783 66.167,277.148 66.167 C 277.250 66.167,277.333 66.317,277.333 66.500 C 277.333 66.685,277.444 66.833,277.583 66.833 C 277.721 66.833,277.833 66.946,277.833 67.083 C 277.833 67.222,277.981 67.333,278.167 67.333 C 278.354 67.333,278.500 67.444,278.500 67.587 C 278.500 67.735,278.705 67.883,278.989 67.940 C 279.258 67.993,279.519 68.141,279.567 68.269 C 279.616 68.396,279.884 68.500,280.161 68.500 C 280.499 68.500,280.667 68.583,280.667 68.750 C 280.667 68.938,280.868 69.000,281.481 69.000 C 282.154 69.000,282.309 69.057,282.382 69.333 C 282.460 69.632,282.609 69.667,283.800 69.667 C 284.829 69.667,285.153 69.723,285.227 69.917 C 285.371 70.291,291.333 70.291,291.333 69.917 C 291.333 69.714,291.602 69.667,292.750 69.667 C 294.056 69.667,294.167 69.641,294.167 69.333 C 294.167 69.044,294.278 69.000,295.000 69.000 C 295.630 69.000,295.833 68.939,295.833 68.750 C 295.833 68.575,296.009 68.500,296.417 68.500 C 296.824 68.500,297.000 68.425,297.000 68.250 C 297.000 68.082,297.168 68.000,297.516 68.000 C 297.891 68.000,298.055 67.909,298.118 67.667 C 298.166 67.483,298.309 67.333,298.436 67.333 C 298.563 67.333,298.667 67.221,298.667 67.083 C 298.667 66.915,298.835 66.833,299.182 66.833 C 299.558 66.833,299.722 66.743,299.785 66.500 C 299.833 66.317,299.970 66.167,300.090 66.167 C 300.209 66.167,300.356 65.942,300.417 65.667 C 300.477 65.392,300.633 65.167,300.763 65.167 C 300.893 65.167,301.000 65.017,301.000 64.833 C 301.000 64.650,301.108 64.500,301.239 64.500 C 301.388 64.500,301.499 64.294,301.531 63.960 C 301.566 63.604,301.683 63.401,301.875 63.364 C 302.144 63.313,302.167 63.534,302.167 66.154 L 302.167 69.000 309.167 69.000 L 316.167 69.000 316.167 58.083 C 316.167 48.491,316.136 47.167,315.917 47.167 C 315.707 47.167,315.667 46.806,315.667 44.917 C 315.667 43.028,315.627 42.667,315.417 42.667 C 315.237 42.667,315.167 42.483,315.167 42.014 C 315.167 41.199,315.032 40.833,314.732 40.833 C 314.585 40.833,314.500 40.650,314.500 40.333 C 314.500 40.000,314.417 39.833,314.250 39.833 C 314.075 39.833,314.000 39.657,314.000 39.250 C 314.000 38.778,313.937 38.667,313.667 38.667 C 313.397 38.667,313.333 38.556,313.333 38.083 C 313.333 37.676,313.258 37.500,313.083 37.500 C 312.946 37.500,312.833 37.387,312.833 37.250 C 312.833 37.112,312.730 37.000,312.603 37.000 C 312.476 37.000,312.333 36.850,312.285 36.667 C 312.237 36.483,312.078 36.333,311.932 36.333 C 311.786 36.333,311.667 36.221,311.667 36.083 C 311.667 35.946,311.563 35.833,311.436 35.833 C 311.309 35.833,311.166 35.683,311.118 35.500 C 311.070 35.317,310.912 35.167,310.766 35.167 C 310.620 35.167,310.500 35.054,310.500 34.917 C 310.500 34.750,310.333 34.667,310.000 34.667 C 309.667 34.667,309.500 34.583,309.500 34.417 C 309.500 34.278,309.352 34.167,309.167 34.167 C 308.944 34.167,308.833 34.056,308.833 33.833 C 308.833 33.563,308.722 33.500,308.250 33.500 C 307.843 33.500,307.667 33.425,307.667 33.250 C 307.667 33.083,307.500 33.000,307.167 33.000 C 306.833 33.000,306.667 32.917,306.667 32.750 C 306.667 32.560,306.461 32.500,305.818 32.500 C 305.109 32.500,304.954 32.445,304.882 32.167 C 304.804 31.869,304.654 31.833,303.481 31.833 C 302.424 31.833,302.167 31.784,302.167 31.583 C 302.167 31.366,301.426 31.333,296.500 31.333 C 291.574 31.333,290.833 31.366,290.833 31.583 M341.667 31.583 C 341.667 31.772,341.463 31.833,340.833 31.833 C 340.111 31.833,340.000 31.878,340.000 32.167 C 340.000 32.437,339.889 32.500,339.417 32.500 C 339.009 32.500,338.833 32.575,338.833 32.750 C 338.833 32.925,338.657 33.000,338.250 33.000 C 337.843 33.000,337.667 33.075,337.667 33.250 C 337.667 33.387,337.554 33.500,337.417 33.500 C 337.278 33.500,337.167 33.648,337.167 33.833 C 337.167 34.056,337.056 34.167,336.833 34.167 C 336.648 34.167,336.500 34.278,336.500 34.417 C 336.500 34.554,336.387 34.667,336.250 34.667 C 336.112 34.667,336.000 34.770,336.000 34.897 C 336.000 35.024,335.850 35.167,335.667 35.215 C 335.483 35.263,335.333 35.422,335.333 35.568 C 335.333 35.714,335.221 35.833,335.083 35.833 C 334.946 35.833,334.833 35.946,334.833 36.083 C 334.833 36.221,334.721 36.333,334.583 36.333 C 334.410 36.333,334.333 36.507,334.333 36.897 C 334.333 37.321,334.250 37.483,334.000 37.548 C 333.757 37.612,333.667 37.776,333.667 38.151 C 333.667 38.498,333.585 38.667,333.417 38.667 C 333.228 38.667,333.167 38.870,333.167 39.500 C 333.167 40.116,333.104 40.333,332.926 40.333 C 332.758 40.333,332.666 40.575,332.623 41.125 C 332.588 41.560,332.547 39.648,332.530 36.875 L 332.500 31.833 325.750 31.833 L 319.000 31.833 319.000 50.417 L 319.000 69.000 326.333 69.000 L 333.667 69.000 333.667 58.019 C 333.667 47.179,333.671 47.038,334.000 46.952 C 334.221 46.894,334.333 46.724,334.333 46.450 C 334.333 46.222,334.446 45.992,334.583 45.940 C 334.721 45.887,334.833 45.729,334.833 45.589 C 334.833 45.448,334.946 45.333,335.083 45.333 C 335.221 45.333,335.333 45.221,335.333 45.083 C 335.333 44.895,335.535 44.833,336.149 44.833 C 336.720 44.833,336.993 44.758,337.060 44.583 C 337.140 44.376,337.588 44.333,339.661 44.333 C 341.777 44.333,342.167 44.372,342.167 44.583 C 342.167 44.772,342.370 44.833,343.000 44.833 C 343.630 44.833,343.833 44.894,343.833 45.083 C 343.833 45.258,344.009 45.333,344.417 45.333 C 344.889 45.333,345.000 45.397,345.000 45.667 C 345.000 45.852,345.111 46.000,345.250 46.000 C 345.417 46.000,345.500 46.167,345.500 46.500 C 345.500 46.889,345.574 47.000,345.833 47.000 C 346.163 47.000,346.167 47.111,346.167 58.000 L 346.167 69.000 353.500 69.000 L 360.833 69.000 360.833 58.583 C 360.833 49.435,360.864 48.167,361.083 48.167 C 361.272 48.167,361.333 47.963,361.333 47.333 C 361.333 46.720,361.397 46.500,361.573 46.500 C 361.721 46.500,361.832 46.294,361.864 45.958 C 361.910 45.482,361.982 45.410,362.458 45.364 C 362.794 45.332,363.000 45.221,363.000 45.073 C 363.000 44.897,363.220 44.833,363.833 44.833 C 364.463 44.833,364.667 44.772,364.667 44.583 C 364.667 44.372,365.065 44.333,367.250 44.333 C 369.435 44.333,369.833 44.372,369.833 44.583 C 369.833 44.772,370.037 44.833,370.667 44.833 C 371.265 44.833,371.500 44.898,371.500 45.064 C 371.500 45.191,371.650 45.334,371.833 45.382 C 372.017 45.430,372.167 45.588,372.167 45.734 C 372.167 45.880,372.279 46.000,372.417 46.000 C 372.554 46.000,372.667 46.112,372.667 46.250 C 372.667 46.387,372.779 46.500,372.917 46.500 C 373.106 46.500,373.167 46.704,373.167 47.333 C 373.167 48.056,373.211 48.167,373.500 48.167 C 373.830 48.167,373.833 48.278,373.833 58.583 L 373.833 69.000 381.167 69.000 L 388.500 69.000 388.498 56.208 C 388.495 43.260,388.476 42.667,388.064 42.667 C 387.886 42.667,387.833 42.345,387.833 41.250 C 387.833 40.102,387.786 39.833,387.583 39.833 C 387.409 39.833,387.333 39.657,387.333 39.250 C 387.333 38.778,387.270 38.667,387.000 38.667 C 386.730 38.667,386.667 38.556,386.667 38.083 C 386.667 37.676,386.591 37.500,386.417 37.500 C 386.242 37.500,386.167 37.324,386.167 36.917 C 386.167 36.509,386.091 36.333,385.917 36.333 C 385.779 36.333,385.667 36.221,385.667 36.083 C 385.667 35.944,385.519 35.833,385.333 35.833 C 385.111 35.833,385.000 35.722,385.000 35.500 C 385.000 35.315,384.889 35.167,384.750 35.167 C 384.613 35.167,384.500 35.054,384.500 34.917 C 384.500 34.779,384.396 34.667,384.268 34.667 C 384.140 34.667,383.992 34.554,383.940 34.417 C 383.887 34.279,383.729 34.167,383.589 34.167 C 383.444 34.167,383.333 34.022,383.333 33.833 C 383.333 33.650,383.229 33.500,383.101 33.500 C 382.973 33.500,382.826 33.387,382.773 33.250 C 382.717 33.104,382.467 33.000,382.172 33.000 C 381.834 33.000,381.667 32.917,381.667 32.750 C 381.667 32.575,381.491 32.500,381.083 32.500 C 380.611 32.500,380.500 32.437,380.500 32.167 C 380.500 31.868,380.389 31.833,379.417 31.833 C 378.565 31.833,378.333 31.780,378.333 31.583 C 378.333 31.367,377.722 31.333,373.833 31.333 C 369.944 31.333,369.333 31.367,369.333 31.583 C 369.333 31.771,369.132 31.833,368.519 31.833 C 367.846 31.833,367.691 31.891,367.618 32.167 C 367.555 32.409,367.391 32.500,367.016 32.500 C 366.668 32.500,366.500 32.582,366.500 32.750 C 366.500 32.925,366.324 33.000,365.917 33.000 C 365.531 33.000,365.333 33.078,365.333 33.231 C 365.333 33.357,365.183 33.500,365.000 33.548 C 364.817 33.596,364.667 33.755,364.667 33.901 C 364.667 34.085,364.513 34.167,364.167 34.167 C 363.833 34.167,363.667 34.250,363.667 34.417 C 363.667 34.554,363.562 34.667,363.434 34.667 C 363.180 34.667,363.000 35.017,363.000 35.514 C 363.000 35.689,362.887 35.833,362.750 35.833 C 362.613 35.833,362.500 35.946,362.500 36.083 C 362.500 36.221,362.387 36.333,362.250 36.333 C 362.075 36.333,362.000 36.509,362.000 36.917 C 362.000 37.389,361.937 37.500,361.667 37.500 C 361.397 37.500,361.333 37.611,361.333 38.083 C 361.333 38.491,361.258 38.667,361.083 38.667 C 360.910 38.667,360.833 38.840,360.833 39.231 C 360.833 39.654,360.750 39.816,360.500 39.882 C 360.213 39.957,360.167 40.109,360.167 40.984 C 360.167 41.776,360.112 42.000,359.917 42.000 C 359.720 42.000,359.667 41.769,359.667 40.917 C 359.667 40.111,359.608 39.833,359.438 39.833 C 359.290 39.833,359.179 39.561,359.123 39.058 C 359.070 38.592,358.929 38.223,358.768 38.133 C 358.616 38.048,358.500 37.770,358.500 37.492 C 358.500 37.166,358.416 37.000,358.250 37.000 C 358.111 37.000,358.000 36.852,358.000 36.667 C 358.000 36.444,357.889 36.333,357.667 36.333 C 357.407 36.333,357.333 36.222,357.333 35.833 C 357.333 35.500,357.250 35.333,357.083 35.333 C 356.944 35.333,356.833 35.185,356.833 35.000 C 356.833 34.817,356.729 34.667,356.601 34.667 C 356.473 34.667,356.326 34.554,356.273 34.417 C 356.217 34.271,355.967 34.167,355.672 34.167 C 355.278 34.167,355.167 34.093,355.167 33.833 C 355.167 33.611,355.056 33.500,354.833 33.500 C 354.648 33.500,354.500 33.389,354.500 33.250 C 354.500 33.083,354.333 33.000,354.000 33.000 C 353.667 33.000,353.500 32.917,353.500 32.750 C 353.500 32.575,353.324 32.500,352.917 32.500 C 352.444 32.500,352.333 32.437,352.333 32.167 C 352.333 31.879,352.222 31.833,351.518 31.833 C 350.947 31.833,350.674 31.758,350.606 31.583 C 350.524 31.370,349.865 31.333,346.089 31.333 C 342.269 31.333,341.667 31.367,341.667 31.583 M254.833 42.833 C 254.981 43.109,255.182 43.167,256.006 43.167 C 256.778 43.167,257.000 43.222,257.000 43.417 C 257.000 43.554,257.104 43.667,257.232 43.667 C 257.360 43.667,257.508 43.779,257.560 43.917 C 257.613 44.054,257.771 44.167,257.911 44.167 C 258.056 44.167,258.167 44.312,258.167 44.500 C 258.167 44.685,258.278 44.833,258.417 44.833 C 258.582 44.833,258.667 44.998,258.667 45.319 C 258.667 45.587,258.760 45.843,258.875 45.890 C 258.990 45.936,255.952 45.980,252.125 45.987 L 245.167 46.000 245.167 45.417 C 245.167 45.009,245.242 44.833,245.417 44.833 C 245.554 44.833,245.667 44.726,245.667 44.595 C 245.667 44.463,245.817 44.308,246.000 44.250 C 246.183 44.192,246.333 44.037,246.333 43.905 C 246.333 43.751,246.510 43.667,246.833 43.667 C 247.167 43.667,247.333 43.583,247.333 43.417 C 247.333 43.228,247.537 43.167,248.167 43.167 C 248.889 43.167,249.000 43.122,249.000 42.833 C 249.000 42.513,249.111 42.500,251.827 42.500 C 254.484 42.500,254.666 42.520,254.833 42.833 M301.000 57.250 C 301.000 57.657,300.925 57.833,300.750 57.833 C 300.612 57.833,300.500 57.946,300.500 58.083 C 300.500 58.258,300.324 58.333,299.917 58.333 C 299.444 58.333,299.333 58.397,299.333 58.667 C 299.333 58.966,299.222 59.000,298.245 59.000 C 297.431 59.000,297.132 59.063,297.060 59.250 C 296.979 59.461,296.444 59.500,293.667 59.500 C 290.889 59.500,290.354 59.461,290.273 59.250 C 290.220 59.112,290.062 59.000,289.922 59.000 C 289.778 59.000,289.667 58.855,289.667 58.667 C 289.667 58.478,289.778 58.333,289.922 58.333 C 290.062 58.333,290.220 58.221,290.273 58.083 C 290.350 57.882,290.726 57.833,292.200 57.833 C 293.891 57.833,294.038 57.808,294.118 57.500 C 294.200 57.188,294.346 57.167,296.436 57.167 C 298.308 57.167,298.667 57.126,298.667 56.917 C 298.667 56.718,298.907 56.667,299.833 56.667 L 301.000 56.667 301.000 57.250 " stroke="none" fill="#fcfcfc" fill-rule="evenodd"></path><path id="path1" d="M21.559 21.410 C 21.300 21.688,21.129 28.291,21.376 28.443 C 21.489 28.513,21.501 28.468,21.410 28.317 C 21.300 28.135,21.322 28.123,21.510 28.262 C 21.866 28.528,22.505 28.515,22.610 28.240 C 22.661 28.108,22.869 28.000,23.073 28.000 C 23.292 28.000,23.444 27.897,23.444 27.750 C 23.444 27.613,23.384 27.500,23.311 27.500 C 23.237 27.500,23.216 27.400,23.263 27.277 C 23.310 27.154,23.233 26.958,23.093 26.841 C 22.952 26.724,22.878 26.562,22.928 26.481 C 22.979 26.400,22.942 26.333,22.847 26.333 C 22.752 26.333,22.679 26.015,22.686 25.625 C 22.703 24.634,22.409 23.108,22.186 23.034 C 22.084 23.000,21.999 22.660,21.997 22.278 C 21.994 21.432,21.833 21.114,21.559 21.410 M47.917 30.294 C 47.678 30.469,47.617 31.000,47.836 31.000 C 47.937 31.000,47.973 31.075,47.917 31.167 C 47.860 31.258,47.853 31.333,47.901 31.333 C 47.949 31.333,48.075 31.172,48.180 30.975 C 48.342 30.672,48.331 30.632,48.111 30.716 C 47.934 30.784,47.879 30.742,47.939 30.585 C 47.989 30.455,48.142 30.398,48.291 30.456 C 48.466 30.522,48.514 30.491,48.434 30.362 C 48.296 30.138,48.154 30.120,47.917 30.294 M21.167 53.000 L 21.167 74.667 27.625 74.650 C 31.177 74.641,33.896 74.581,33.667 74.517 C 33.329 74.422,33.261 74.312,33.306 73.934 C 33.345 73.608,33.257 73.395,33.014 73.224 C 32.655 72.973,32.494 71.667,32.822 71.667 C 33.030 71.667,32.732 70.644,32.479 70.487 C 32.372 70.421,32.334 70.238,32.395 70.080 C 32.547 69.685,32.046 67.356,31.745 67.055 C 31.454 66.763,31.411 66.259,31.692 66.433 C 31.822 66.513,31.839 66.477,31.744 66.324 C 31.666 66.198,31.576 65.836,31.544 65.519 C 31.511 65.202,31.380 64.861,31.251 64.763 C 30.971 64.547,30.732 63.667,30.954 63.667 C 31.040 63.667,31.111 63.554,31.111 63.417 C 31.111 63.279,31.057 63.167,30.992 63.167 C 30.926 63.167,30.833 63.017,30.785 62.833 C 30.737 62.650,30.768 62.500,30.855 62.500 C 30.948 62.500,30.941 62.368,30.839 62.178 C 30.744 62.000,30.667 61.675,30.667 61.455 C 30.667 61.235,30.614 61.003,30.549 60.938 C 30.485 60.874,30.406 60.627,30.374 60.390 C 30.342 60.153,30.208 59.851,30.075 59.718 C 29.808 59.451,29.756 59.167,29.973 59.167 C 30.137 59.167,29.863 57.161,29.666 56.917 C 29.480 56.688,29.150 54.829,29.262 54.648 C 29.312 54.567,29.236 54.334,29.093 54.130 C 28.950 53.926,28.833 53.516,28.833 53.219 C 28.833 52.897,28.701 52.556,28.505 52.374 C 28.258 52.144,28.181 51.864,28.194 51.242 C 28.216 50.163,28.081 49.157,27.896 49.023 C 27.815 48.965,27.728 48.589,27.702 48.190 C 27.677 47.790,27.553 47.265,27.428 47.023 C 27.303 46.781,27.228 46.350,27.261 46.066 C 27.301 45.720,27.213 45.434,26.994 45.198 C 26.654 44.834,26.542 44.403,26.833 44.583 C 27.122 44.762,27.016 43.862,26.673 43.223 C 26.494 42.887,26.389 42.545,26.440 42.462 C 26.612 42.184,26.326 41.167,26.076 41.167 C 25.811 41.167,25.738 40.729,25.988 40.639 C 26.173 40.572,25.950 39.355,25.481 37.872 C 25.300 37.297,25.188 36.767,25.233 36.694 C 25.278 36.621,25.217 36.274,25.096 35.924 C 24.966 35.547,24.841 35.381,24.789 35.518 C 24.741 35.646,24.742 35.317,24.791 34.787 C 24.879 33.842,24.567 32.816,24.083 32.461 C 23.985 32.389,24.020 32.336,24.167 32.333 C 24.389 32.329,24.389 32.310,24.167 32.167 C 24.009 32.064,23.991 32.004,24.120 32.003 C 24.231 32.001,24.282 31.893,24.232 31.763 C 24.173 31.610,24.278 31.501,24.529 31.453 C 24.742 31.412,24.073 31.369,23.042 31.356 L 21.167 31.333 21.167 53.000 M47.720 33.833 L 47.750 35.917 46.250 35.819 C 45.425 35.765,44.300 35.742,43.750 35.769 C 42.611 35.823,41.833 35.710,41.833 35.491 C 41.833 35.408,43.165 35.319,44.792 35.291 C 46.870 35.257,46.300 35.231,42.875 35.204 L 38.000 35.167 38.000 35.577 C 38.000 35.818,37.862 36.062,37.667 36.167 C 37.105 36.467,37.158 42.627,37.727 43.241 L 38.122 43.667 42.894 43.667 L 47.667 43.667 47.667 50.417 L 47.667 57.167 42.875 57.170 C 38.410 57.174,38.055 57.196,37.667 57.494 L 37.250 57.814 37.196 61.228 L 37.142 64.643 37.571 64.924 C 37.807 65.079,38.000 65.309,38.000 65.436 C 38.000 65.627,38.827 65.667,42.833 65.667 L 47.667 65.667 47.667 68.500 C 47.667 70.928,47.703 71.333,47.921 71.333 C 48.069 71.333,48.216 71.538,48.273 71.823 C 48.327 72.092,48.475 72.352,48.602 72.401 C 48.729 72.450,48.833 72.717,48.833 72.995 C 48.833 73.273,48.904 73.500,48.991 73.500 C 49.215 73.500,50.000 74.252,50.000 74.467 C 50.000 74.565,50.244 74.669,50.542 74.698 C 50.866 74.729,51.067 74.834,51.042 74.958 C 51.019 75.073,51.150 75.167,51.333 75.167 C 51.517 75.167,51.667 75.270,51.667 75.397 C 51.667 75.660,52.167 75.828,52.958 75.831 C 53.328 75.833,53.500 75.913,53.500 76.083 C 53.500 76.294,53.880 76.333,55.917 76.333 L 58.333 76.333 58.333 81.488 C 58.333 86.012,58.366 86.676,58.603 86.912 C 58.838 87.148,59.364 87.175,62.811 87.132 L 66.750 87.083 66.798 81.758 C 66.824 78.829,66.862 76.418,66.881 76.400 C 66.901 76.382,69.789 76.340,73.299 76.307 C 77.849 76.263,79.715 76.191,79.799 76.055 C 79.864 75.950,79.894 78.332,79.867 81.349 C 79.831 85.286,79.869 86.833,80.001 86.833 C 80.103 86.833,80.146 86.898,80.097 86.977 C 80.048 87.057,81.695 87.136,83.757 87.154 C 85.819 87.172,87.496 87.126,87.484 87.052 C 87.427 86.717,87.519 86.605,87.663 86.833 C 88.052 87.449,88.341 86.664,88.154 85.501 C 87.966 84.336,87.845 84.043,87.814 84.681 C 87.767 85.627,87.538 84.025,87.489 82.417 L 87.439 80.750 87.344 82.044 C 87.254 83.285,86.977 83.845,86.861 83.023 C 86.826 82.773,86.871 82.670,86.986 82.741 C 87.576 83.106,87.153 81.193,86.500 80.539 C 86.102 80.141,85.832 79.714,85.831 79.478 C 85.829 79.197,85.787 79.148,85.687 79.306 C 85.433 79.708,84.756 79.470,84.697 78.958 C 84.668 78.706,84.499 78.422,84.322 78.327 C 84.115 78.216,84.000 77.979,84.000 77.661 C 84.000 77.223,83.943 77.167,83.500 77.167 C 83.167 77.167,83.000 77.083,83.000 76.917 C 83.000 76.760,82.841 76.667,82.573 76.667 C 82.339 76.667,82.190 76.596,82.244 76.510 C 82.297 76.424,82.217 76.285,82.066 76.200 C 81.870 76.091,81.811 75.883,81.858 75.474 C 81.922 74.931,81.902 74.905,81.460 74.970 C 81.087 75.025,81.016 74.986,81.099 74.769 C 81.156 74.621,81.302 74.500,81.425 74.500 C 81.547 74.500,81.697 74.418,81.759 74.319 C 81.954 74.004,81.525 73.767,80.834 73.807 C 80.234 73.843,80.167 73.807,80.167 73.457 C 80.167 72.962,79.874 72.667,79.383 72.667 C 79.107 72.667,79.000 72.570,79.000 72.323 C 79.000 72.135,78.930 72.023,78.845 72.076 C 78.760 72.129,78.642 72.095,78.584 72.002 C 78.526 71.908,78.596 71.786,78.739 71.731 C 79.071 71.604,79.078 71.186,78.750 71.060 C 78.596 71.001,78.500 70.748,78.500 70.399 C 78.500 69.885,78.456 69.833,78.013 69.833 C 77.608 69.833,77.508 69.750,77.417 69.333 C 77.268 68.658,76.667 68.621,76.667 69.287 L 76.667 69.741 76.400 69.360 C 76.153 69.007,76.155 68.962,76.425 68.764 C 76.704 68.560,76.625 68.070,76.341 68.245 C 76.266 68.292,76.166 68.180,76.118 67.998 C 76.063 67.787,75.889 67.666,75.641 67.664 C 75.426 67.662,75.075 67.477,74.862 67.252 C 74.466 66.835,74.495 66.500,74.927 66.500 C 75.252 66.500,75.154 66.112,74.792 65.964 C 74.631 65.898,74.500 65.687,74.500 65.496 C 74.500 65.285,74.428 65.192,74.317 65.260 C 74.217 65.322,73.921 65.139,73.660 64.853 C 73.399 64.567,73.036 64.333,72.853 64.333 C 72.395 64.333,72.223 63.993,72.558 63.748 C 72.928 63.477,72.905 63.224,72.500 63.118 C 72.317 63.070,72.167 62.912,72.167 62.766 C 72.167 62.620,72.046 62.500,71.899 62.500 C 71.729 62.500,71.666 62.408,71.727 62.250 C 71.793 62.077,71.716 62.000,71.477 62.000 C 71.249 62.000,71.162 61.921,71.221 61.766 C 71.326 61.493,70.872 61.339,69.948 61.336 C 69.568 61.334,69.355 61.267,69.417 61.167 C 69.565 60.926,68.941 60.961,68.679 61.208 C 68.502 61.375,68.443 61.375,68.382 61.208 C 68.337 61.086,67.950 60.984,67.444 60.961 C 66.971 60.940,69.583 60.882,73.250 60.833 L 79.917 60.744 71.375 60.705 L 62.833 60.667 62.809 56.625 C 62.780 51.907,62.786 52.067,62.625 51.904 C 62.556 51.835,62.499 51.247,62.497 50.597 C 62.496 49.948,62.422 49.304,62.333 49.167 C 62.215 48.984,62.171 49.109,62.169 49.633 C 62.167 50.249,62.128 50.328,61.893 50.197 C 61.742 50.113,61.480 50.080,61.310 50.125 C 61.055 50.191,61.000 50.110,61.000 49.671 C 61.000 49.287,61.089 49.112,61.314 49.053 C 61.529 48.997,61.601 48.869,61.543 48.646 C 61.496 48.467,61.416 48.362,61.365 48.412 C 61.193 48.585,60.333 47.606,60.333 47.237 C 60.333 47.034,60.226 46.828,60.095 46.778 C 59.964 46.727,59.833 46.476,59.804 46.220 C 59.745 45.707,59.167 45.433,59.167 45.918 C 59.167 46.070,59.073 46.163,58.958 46.125 C 58.831 46.083,58.750 45.752,58.750 45.278 C 58.750 44.668,58.691 44.500,58.476 44.500 C 58.326 44.500,58.159 44.387,58.106 44.250 C 58.054 44.112,57.896 44.000,57.755 44.000 C 57.615 44.000,57.500 44.112,57.500 44.250 C 57.500 44.387,57.388 44.500,57.252 44.500 C 57.116 44.500,57.015 44.369,57.028 44.208 C 57.107 43.267,56.993 42.833,56.667 42.833 C 56.474 42.833,56.333 42.722,56.333 42.569 C 56.333 42.424,56.240 42.340,56.125 42.382 C 56.010 42.424,55.933 42.534,55.952 42.628 C 55.972 42.721,55.813 42.830,55.600 42.871 C 55.289 42.930,55.228 42.884,55.292 42.639 C 55.336 42.471,55.476 42.333,55.603 42.333 C 55.730 42.333,55.833 42.183,55.833 42.000 C 55.833 41.817,55.758 41.667,55.667 41.667 C 55.575 41.667,55.500 41.547,55.500 41.401 C 55.500 41.255,55.346 41.095,55.157 41.046 C 54.958 40.994,54.850 40.863,54.900 40.733 C 55.004 40.463,54.732 40.259,54.585 40.497 C 54.377 40.833,54.131 40.665,54.233 40.258 C 54.305 39.970,54.238 39.757,54.005 39.541 C 53.775 39.326,53.682 39.038,53.698 38.597 C 53.715 38.162,53.636 37.913,53.448 37.808 C 53.002 37.558,52.927 37.637,52.976 38.308 C 53.011 38.804,52.961 38.944,52.750 38.944 C 52.545 38.944,52.485 38.799,52.505 38.347 C 52.550 37.346,52.513 37.209,52.167 37.118 C 51.983 37.070,51.833 37.092,51.833 37.167 C 51.833 37.241,51.671 37.260,51.473 37.208 L 51.112 37.114 51.473 36.822 C 51.971 36.419,51.925 35.817,51.355 35.271 C 50.883 34.819,50.876 34.818,50.783 35.173 C 50.663 35.635,50.333 35.441,50.333 34.908 C 50.333 34.683,50.185 34.410,50.000 34.295 C 49.817 34.180,49.667 33.925,49.667 33.728 C 49.667 33.530,49.546 33.323,49.399 33.266 C 49.252 33.210,49.170 33.064,49.217 32.942 C 49.264 32.820,49.243 32.623,49.169 32.505 C 49.073 32.349,48.999 32.399,48.900 32.686 C 48.772 33.061,48.758 33.050,48.654 32.500 L 48.544 31.917 48.522 32.635 C 48.509 33.066,48.434 33.312,48.333 33.250 C 48.241 33.193,48.167 33.313,48.167 33.518 C 48.167 34.158,48.000 33.757,47.842 32.733 C 47.711 31.887,47.694 32.039,47.720 33.833 M50.120 35.022 C 50.053 35.377,50.043 35.370,50.023 34.948 C 50.008 34.641,49.934 34.521,49.808 34.599 C 49.684 34.676,49.661 34.645,49.743 34.511 C 49.938 34.196,50.208 34.561,50.120 35.022 M51.333 35.843 C 51.333 35.929,51.221 36.000,51.083 36.000 C 50.826 36.000,50.752 35.803,50.940 35.616 C 51.073 35.482,51.333 35.633,51.333 35.843 M63.463 40.289 C 63.855 40.324,64.455 40.324,64.796 40.288 C 65.137 40.252,64.817 40.223,64.083 40.224 C 63.350 40.224,63.071 40.254,63.463 40.289 M56.462 43.802 C 56.499 43.913,56.375 44.000,56.181 44.000 C 55.834 44.000,55.731 43.825,55.948 43.608 C 56.102 43.453,56.381 43.559,56.462 43.802 M59.743 46.988 C 59.866 47.188,59.553 47.386,59.331 47.248 C 59.144 47.133,59.267 46.833,59.500 46.833 C 59.581 46.833,59.690 46.903,59.743 46.988 M62.000 50.907 C 62.000 51.039,61.930 51.190,61.845 51.243 C 61.647 51.365,61.447 51.053,61.583 50.833 C 61.737 50.585,62.000 50.632,62.000 50.907 M71.083 61.167 C 71.140 61.258,71.294 61.333,71.427 61.333 C 71.559 61.333,71.667 61.258,71.667 61.167 C 71.667 61.075,71.512 61.000,71.323 61.000 C 71.135 61.000,71.027 61.075,71.083 61.167 M67.458 61.282 C 67.298 61.323,67.035 61.323,66.875 61.282 C 66.715 61.240,66.846 61.205,67.167 61.205 C 67.487 61.205,67.619 61.240,67.458 61.282 M77.333 69.472 C 77.333 69.689,77.135 69.834,76.974 69.734 C 76.802 69.627,76.950 69.333,77.177 69.333 C 77.263 69.333,77.333 69.396,77.333 69.472 M79.500 73.583 C 79.500 73.721,79.387 73.833,79.250 73.833 C 78.990 73.833,78.919 73.636,79.111 73.444 C 79.303 73.253,79.500 73.323,79.500 73.583 M80.464 77.849 L 80.414 79.250 80.332 77.716 C 80.287 76.872,80.309 76.242,80.382 76.315 C 80.455 76.388,80.492 77.078,80.464 77.849 M83.441 77.750 C 83.427 77.979,83.342 78.166,83.250 78.166 C 83.158 78.166,83.073 77.979,83.059 77.750 C 83.045 77.509,83.126 77.333,83.250 77.333 C 83.374 77.333,83.455 77.509,83.441 77.750 M85.833 80.157 C 85.833 80.243,85.772 80.352,85.696 80.398 C 85.621 80.445,85.581 80.755,85.607 81.087 C 85.638 81.484,85.589 81.669,85.463 81.627 C 85.219 81.545,85.172 80.290,85.406 80.128 C 85.652 79.958,85.833 79.970,85.833 80.157 " stroke="none" fill="#bee5fc" fill-rule="evenodd"></path><path id="path2" d="M58.447 13.942 C 58.385 14.004,58.333 16.403,58.333 19.271 L 58.333 24.487 56.875 24.543 L 55.417 24.598 56.958 24.632 L 58.500 24.667 58.531 23.958 C 58.548 23.569,58.567 22.650,58.573 21.917 C 58.579 21.183,58.613 19.496,58.649 18.167 L 58.714 15.750 58.879 17.333 C 58.970 18.204,59.051 19.246,59.059 19.649 L 59.073 20.381 59.279 19.899 C 59.392 19.634,59.488 19.488,59.492 19.575 C 59.497 19.662,59.590 19.643,59.700 19.533 C 60.085 19.148,60.313 19.322,60.365 20.041 C 60.412 20.682,60.464 20.756,60.917 20.833 C 61.354 20.908,61.423 20.995,61.468 21.534 C 61.508 22.019,61.575 22.127,61.786 22.046 C 61.995 21.966,62.033 22.023,61.959 22.305 C 61.905 22.514,61.932 22.626,62.023 22.569 C 62.244 22.433,62.699 22.842,62.603 23.091 C 62.554 23.221,62.635 23.267,62.827 23.217 C 63.079 23.151,63.123 23.230,63.092 23.694 C 63.042 24.451,63.265 24.833,63.756 24.833 C 64.035 24.833,64.167 24.927,64.169 25.125 C 64.171 25.376,64.196 25.381,64.341 25.167 C 64.468 24.980,64.484 25.028,64.408 25.359 C 64.333 25.680,64.385 25.846,64.595 25.963 C 64.763 26.058,64.844 26.233,64.787 26.381 C 64.706 26.591,64.772 26.613,65.157 26.503 C 65.567 26.385,65.616 26.408,65.544 26.684 C 65.479 26.932,65.574 27.023,65.983 27.105 C 66.270 27.162,66.495 27.293,66.483 27.396 C 66.344 28.570,66.493 28.934,67.083 28.865 C 67.698 28.793,67.835 28.986,67.417 29.333 C 67.058 29.631,67.108 29.833,67.542 29.833 C 68.301 29.833,69.215 31.297,68.625 31.568 C 68.510 31.621,68.572 31.626,68.761 31.580 C 69.195 31.475,69.870 32.157,69.935 32.767 C 69.992 33.306,70.083 33.405,70.361 33.233 C 70.969 32.857,71.167 33.030,71.167 33.935 C 71.167 34.884,71.395 35.207,71.736 34.741 C 71.886 34.536,71.985 34.507,72.068 34.643 C 72.135 34.750,72.073 34.880,71.927 34.936 C 71.379 35.146,72.427 36.365,73.023 36.209 C 73.310 36.134,73.353 36.176,73.267 36.448 C 73.198 36.665,73.276 36.881,73.498 37.081 C 73.682 37.248,73.834 37.505,73.836 37.651 C 73.840 38.085,74.110 38.385,74.526 38.416 C 74.741 38.432,74.919 38.551,74.921 38.681 C 74.923 38.811,74.984 39.010,75.056 39.125 C 75.131 39.245,75.108 39.333,75.000 39.333 C 74.898 39.333,74.860 39.408,74.917 39.500 C 74.973 39.592,75.784 39.683,76.718 39.703 C 77.754 39.725,77.083 39.776,75.000 39.833 L 71.583 39.927 74.917 40.002 C 77.791 40.067,77.356 40.090,71.750 40.167 L 65.250 40.256 74.522 40.295 L 83.795 40.333 83.903 44.208 C 84.054 49.583,84.210 51.778,84.458 52.026 C 84.625 52.192,84.667 52.135,84.668 51.742 L 84.669 51.250 84.910 51.713 C 85.043 51.967,85.267 52.291,85.409 52.433 C 85.551 52.575,85.667 52.805,85.667 52.944 C 85.667 53.083,85.817 53.388,86.000 53.621 C 86.183 53.854,86.333 53.954,86.333 53.844 C 86.333 53.709,86.415 53.725,86.583 53.893 C 86.721 54.030,86.833 54.321,86.833 54.538 C 86.833 55.038,87.125 55.333,87.617 55.333 C 87.959 55.333,88.000 55.412,88.000 56.077 C 88.000 56.792,88.423 57.355,88.729 57.049 C 88.906 56.872,89.667 57.701,89.667 58.072 C 89.667 58.265,89.927 58.636,90.255 58.909 C 90.579 59.179,90.806 59.497,90.760 59.617 C 90.715 59.736,90.750 59.833,90.839 59.833 C 90.927 59.833,91.000 59.950,91.000 60.093 C 91.000 60.236,91.075 60.307,91.167 60.250 C 91.258 60.193,91.336 60.245,91.339 60.365 C 91.348 60.767,92.174 61.542,92.593 61.542 C 92.827 61.542,93.000 61.639,93.000 61.771 C 93.000 61.897,92.888 62.000,92.750 62.000 C 92.195 62.000,93.136 63.208,93.725 63.252 C 93.922 63.266,94.093 63.385,94.106 63.514 C 94.118 63.644,94.137 63.881,94.147 64.042 C 94.158 64.202,94.286 64.333,94.432 64.333 C 94.578 64.333,94.734 64.470,94.777 64.636 C 94.837 64.865,94.976 64.921,95.345 64.867 C 95.877 64.789,96.070 65.253,95.583 65.440 C 95.446 65.492,95.333 65.640,95.333 65.768 C 95.333 65.896,95.446 66.000,95.583 66.000 C 95.721 66.000,95.833 66.112,95.833 66.250 C 95.833 66.387,95.965 66.511,96.125 66.525 C 96.285 66.539,96.529 66.560,96.667 66.571 C 96.804 66.583,96.906 66.721,96.894 66.879 C 96.878 67.078,96.994 67.167,97.269 67.167 C 97.674 67.167,97.729 67.278,97.671 67.977 C 97.651 68.209,97.708 68.328,97.808 68.266 C 97.907 68.204,98.003 68.388,98.037 68.705 L 98.096 69.250 98.283 68.667 C 98.386 68.346,98.477 68.219,98.485 68.385 C 98.493 68.551,98.570 68.643,98.655 68.591 C 98.740 68.538,98.842 68.665,98.882 68.873 C 98.922 69.080,98.965 68.444,98.977 67.458 L 99.000 65.667 104.208 65.647 C 107.073 65.636,109.474 65.637,109.545 65.648 C 109.615 65.659,109.652 63.774,109.628 61.459 L 109.583 57.250 104.292 57.206 L 99.000 57.162 99.000 50.414 L 99.000 43.667 104.333 43.667 L 109.667 43.667 109.667 39.518 C 109.667 35.888,109.634 35.356,109.403 35.268 C 109.258 35.212,106.858 35.167,104.070 35.167 L 99.000 35.167 98.981 32.708 C 98.957 29.683,98.963 29.741,98.708 29.792 C 98.573 29.819,98.500 29.625,98.500 29.234 C 98.500 28.776,98.422 28.615,98.167 28.548 C 97.931 28.487,97.833 28.321,97.833 27.981 C 97.833 27.675,97.747 27.500,97.595 27.500 C 97.463 27.500,97.311 27.358,97.256 27.185 C 97.201 27.011,96.998 26.828,96.806 26.778 C 96.575 26.717,96.490 26.599,96.556 26.429 C 96.610 26.287,96.601 26.179,96.536 26.188 C 96.075 26.257,95.667 26.130,95.667 25.917 C 95.667 25.779,95.525 25.667,95.351 25.667 C 95.178 25.667,94.992 25.554,94.940 25.417 C 94.873 25.244,94.604 25.167,94.065 25.167 C 93.534 25.167,93.223 25.079,93.086 24.891 C 92.913 24.656,92.558 24.621,90.611 24.652 L 88.338 24.687 88.294 19.302 L 88.250 13.917 84.178 13.872 C 81.032 13.837,80.076 13.875,79.973 14.039 C 79.899 14.155,79.837 16.556,79.836 19.375 L 79.833 24.500 73.336 24.500 L 66.838 24.500 66.794 19.208 L 66.750 13.917 62.656 13.872 C 60.404 13.848,58.510 13.879,58.447 13.942 M24.500 17.276 C 26.013 17.508,26.110 17.541,25.667 17.675 C 25.410 17.752,25.359 17.806,25.534 17.817 C 25.728 17.828,25.851 18.032,25.922 18.458 C 25.979 18.802,26.133 19.415,26.263 19.821 C 26.393 20.227,26.501 20.790,26.503 21.071 C 26.504 21.353,26.653 22.146,26.833 22.833 C 27.014 23.521,27.162 24.310,27.164 24.588 C 27.165 24.865,27.263 25.240,27.380 25.421 C 27.497 25.602,27.617 25.975,27.646 26.250 C 27.675 26.525,27.772 26.839,27.861 26.948 C 27.963 27.072,27.965 27.258,27.867 27.448 C 27.668 27.836,27.785 28.159,28.139 28.195 C 28.292 28.210,27.967 28.272,27.417 28.333 C 26.867 28.394,29.023 28.457,32.208 28.472 L 38.000 28.500 38.000 22.833 L 38.000 17.167 31.042 17.189 C 27.215 17.202,24.271 17.241,24.500 17.276 M66.448 24.292 C 66.406 24.452,66.372 24.321,66.372 24.000 C 66.372 23.679,66.406 23.548,66.448 23.708 C 66.490 23.869,66.490 24.131,66.448 24.292 M53.806 24.612 C 53.465 24.702,53.260 25.167,53.561 25.167 C 53.680 25.167,53.833 25.110,53.901 25.042 C 53.969 24.973,54.262 24.829,54.554 24.721 L 55.083 24.525 54.583 24.532 C 54.308 24.536,53.958 24.572,53.806 24.612 M51.944 25.278 C 51.785 25.437,51.807 25.667,51.982 25.667 C 52.064 25.667,52.174 25.554,52.227 25.417 C 52.324 25.163,52.147 25.075,51.944 25.278 M50.691 26.013 C 50.475 26.188,50.213 26.283,50.108 26.225 C 49.981 26.154,49.985 26.191,50.118 26.335 C 50.271 26.500,50.375 26.507,50.550 26.361 C 50.677 26.256,50.828 26.217,50.886 26.275 C 50.945 26.333,51.041 26.255,51.100 26.100 C 51.260 25.684,51.131 25.657,50.691 26.013 M28.908 31.486 C 28.962 31.573,28.921 31.696,28.818 31.759 C 28.686 31.841,28.697 31.917,28.857 32.018 C 29.042 32.135,29.037 32.163,28.833 32.167 C 28.628 32.171,28.624 32.197,28.812 32.316 C 28.941 32.399,29.142 33.098,29.276 33.937 C 29.406 34.748,29.585 35.485,29.673 35.573 C 29.761 35.661,29.833 36.122,29.833 36.596 C 29.833 37.160,29.920 37.531,30.083 37.667 C 30.221 37.781,30.333 38.110,30.333 38.398 C 30.333 38.686,30.486 39.333,30.672 39.836 C 30.858 40.339,31.040 41.179,31.075 41.703 C 31.111 42.226,31.200 42.751,31.273 42.869 C 31.346 42.987,31.433 43.458,31.467 43.917 C 31.501 44.375,31.628 44.862,31.749 45.000 C 31.870 45.137,32.001 45.663,32.041 46.167 C 32.152 47.568,32.665 49.885,32.930 50.180 C 33.060 50.325,33.167 50.700,33.167 51.013 C 33.167 51.590,33.464 53.158,33.820 54.462 C 33.927 54.854,33.967 55.252,33.908 55.348 C 33.849 55.443,33.911 55.648,34.046 55.802 C 34.185 55.962,34.328 56.570,34.377 57.210 C 34.423 57.830,34.547 58.440,34.652 58.566 C 34.756 58.692,34.851 59.085,34.861 59.439 C 34.872 59.793,34.973 60.271,35.085 60.500 C 35.197 60.729,35.343 61.479,35.408 62.167 C 35.478 62.905,35.631 63.533,35.782 63.700 C 35.934 63.869,36.072 64.443,36.124 65.117 C 36.171 65.740,36.272 66.329,36.348 66.425 C 36.423 66.521,36.536 66.917,36.598 67.304 C 36.660 67.691,36.776 68.048,36.855 68.097 C 36.935 68.146,37.000 68.467,37.000 68.810 C 37.000 69.153,37.077 69.510,37.170 69.603 C 37.264 69.697,37.394 70.293,37.459 70.928 L 37.577 72.083 37.706 71.083 C 37.777 70.533,37.881 69.101,37.936 67.900 L 38.037 65.716 37.519 65.347 L 37.000 64.977 37.000 61.478 C 37.000 57.856,37.085 57.333,37.673 57.333 C 37.993 57.333,38.000 57.182,38.000 50.519 L 38.000 43.705 37.583 43.432 L 37.167 43.159 37.167 39.750 L 37.167 36.341 37.588 36.065 C 38.008 35.790,38.009 35.780,37.963 33.603 L 37.917 31.417 33.363 31.372 C 30.528 31.345,28.847 31.387,28.908 31.486 M73.750 39.500 C 73.807 39.592,73.994 39.667,74.167 39.667 C 74.339 39.667,74.527 39.592,74.583 39.500 C 74.644 39.403,74.471 39.333,74.167 39.333 C 73.863 39.333,73.690 39.403,73.750 39.500 M98.667 70.333 C 98.444 70.477,98.444 70.495,98.667 70.500 C 98.845 70.504,98.860 70.541,98.717 70.632 C 98.590 70.713,98.571 70.846,98.666 71.000 C 98.796 71.209,98.826 71.208,98.894 70.995 C 98.957 70.798,98.985 70.159,98.931 70.169 C 98.923 70.171,98.804 70.244,98.667 70.333 M98.314 71.375 C 98.303 71.490,98.306 71.649,98.321 71.729 C 98.335 71.809,98.220 72.016,98.064 72.188 C 97.909 72.359,97.864 72.500,97.964 72.500 C 98.065 72.500,98.200 72.414,98.265 72.309 C 98.407 72.079,98.526 71.167,98.413 71.167 C 98.369 71.167,98.324 71.260,98.314 71.375 M97.383 73.371 C 97.059 73.789,96.983 74.000,97.157 74.000 C 97.254 74.000,97.333 73.894,97.333 73.764 C 97.333 73.634,97.427 73.494,97.542 73.453 C 97.656 73.412,97.704 73.329,97.649 73.269 C 97.593 73.208,97.473 73.254,97.383 73.371 M96.051 74.532 C 95.672 74.716,95.396 75.167,95.663 75.167 C 95.747 75.167,96.018 74.979,96.266 74.750 C 96.738 74.312,96.663 74.237,96.051 74.532 M94.432 75.483 C 94.158 75.786,94.163 75.798,94.552 75.775 C 94.785 75.761,94.926 75.667,94.883 75.556 C 94.842 75.450,94.946 75.327,95.113 75.284 C 95.373 75.217,95.366 75.203,95.067 75.186 C 94.875 75.175,94.589 75.309,94.432 75.483 M92.426 76.089 C 92.107 76.330,92.107 76.333,92.436 76.333 C 92.620 76.333,92.915 76.223,93.093 76.089 C 93.412 75.847,93.412 75.844,93.083 75.844 C 92.900 75.844,92.604 75.954,92.426 76.089 " stroke="none" fill="#d6cffc" fill-rule="evenodd"></path><path id="path3" d="M58.649 18.167 C 58.613 19.496,58.579 21.183,58.573 21.917 C 58.567 22.650,58.548 23.569,58.531 23.958 L 58.500 24.667 56.542 24.668 C 55.130 24.668,54.450 24.738,54.106 24.918 C 53.843 25.055,53.335 25.167,52.976 25.167 C 52.549 25.167,52.290 25.253,52.227 25.417 C 52.174 25.554,51.954 25.667,51.738 25.667 C 51.514 25.667,51.267 25.812,51.164 26.005 C 51.065 26.191,50.920 26.303,50.842 26.256 C 50.626 26.122,48.797 27.998,48.895 28.253 C 48.942 28.375,48.858 28.575,48.708 28.696 C 48.479 28.881,48.459 28.879,48.577 28.683 C 48.673 28.524,48.656 28.487,48.526 28.567 C 48.420 28.633,48.333 28.982,48.333 29.343 C 48.333 29.780,48.263 29.986,48.125 29.958 C 47.998 29.933,47.933 30.066,47.958 30.301 C 47.986 30.556,47.935 30.646,47.807 30.567 C 47.691 30.495,47.660 30.522,47.730 30.634 C 47.793 30.735,47.963 30.773,48.108 30.717 C 48.332 30.632,48.343 30.671,48.180 30.975 C 48.075 31.172,47.949 31.333,47.901 31.333 C 47.853 31.333,47.860 31.258,47.917 31.167 C 47.973 31.075,47.940 31.000,47.843 31.000 C 47.596 31.000,47.622 31.454,47.875 31.556 C 47.992 31.603,48.004 31.646,47.903 31.654 C 47.777 31.663,47.765 31.982,47.863 32.696 C 48.007 33.750,48.167 34.182,48.167 33.518 C 48.167 33.313,48.241 33.193,48.333 33.250 C 48.434 33.312,48.509 33.066,48.522 32.635 L 48.544 31.917 48.654 32.500 C 48.758 33.050,48.772 33.061,48.900 32.686 C 48.999 32.399,49.073 32.349,49.169 32.505 C 49.243 32.623,49.264 32.820,49.217 32.942 C 49.170 33.064,49.252 33.210,49.399 33.266 C 49.546 33.323,49.667 33.530,49.667 33.728 C 49.667 33.925,49.817 34.180,50.000 34.295 C 50.185 34.410,50.333 34.683,50.333 34.908 C 50.333 35.441,50.663 35.635,50.783 35.173 C 50.876 34.818,50.883 34.819,51.355 35.271 C 51.925 35.817,51.971 36.419,51.473 36.822 L 51.112 37.114 51.473 37.208 C 51.671 37.260,51.833 37.241,51.833 37.167 C 51.833 37.092,51.983 37.070,52.167 37.118 C 52.513 37.209,52.550 37.346,52.505 38.347 C 52.485 38.799,52.545 38.944,52.750 38.944 C 52.965 38.944,53.011 38.802,52.972 38.264 C 52.945 37.890,52.980 37.599,53.048 37.619 C 53.558 37.762,53.720 38.007,53.698 38.597 C 53.682 39.038,53.775 39.326,54.005 39.541 C 54.238 39.757,54.305 39.970,54.233 40.258 C 54.131 40.665,54.377 40.833,54.585 40.497 C 54.739 40.248,55.001 40.469,54.892 40.755 C 54.832 40.911,54.900 41.000,55.081 41.000 C 55.237 41.000,55.404 41.150,55.452 41.333 C 55.500 41.517,55.605 41.667,55.686 41.667 C 55.767 41.667,55.833 41.817,55.833 42.000 C 55.833 42.183,55.730 42.333,55.603 42.333 C 55.476 42.333,55.336 42.471,55.292 42.639 C 55.228 42.884,55.289 42.930,55.600 42.871 C 55.813 42.830,55.972 42.721,55.952 42.628 C 55.933 42.534,56.010 42.424,56.125 42.382 C 56.240 42.340,56.333 42.424,56.333 42.569 C 56.333 42.722,56.474 42.833,56.667 42.833 C 56.993 42.833,57.107 43.267,57.028 44.208 C 57.015 44.369,57.116 44.500,57.252 44.500 C 57.388 44.500,57.500 44.387,57.500 44.250 C 57.500 44.112,57.615 44.000,57.755 44.000 C 57.896 44.000,58.054 44.112,58.106 44.250 C 58.159 44.387,58.326 44.500,58.476 44.500 C 58.691 44.500,58.750 44.668,58.750 45.278 C 58.750 45.752,58.831 46.083,58.958 46.125 C 59.073 46.163,59.167 46.070,59.167 45.918 C 59.167 45.433,59.745 45.707,59.804 46.220 C 59.833 46.476,59.964 46.727,60.095 46.778 C 60.226 46.828,60.333 47.034,60.333 47.237 C 60.333 47.606,61.193 48.585,61.365 48.412 C 61.416 48.362,61.496 48.467,61.543 48.646 C 61.601 48.869,61.529 48.997,61.314 49.053 C 61.089 49.112,61.000 49.287,61.000 49.671 C 61.000 50.110,61.055 50.191,61.310 50.125 C 61.480 50.080,61.742 50.113,61.893 50.197 C 62.128 50.328,62.167 50.249,62.169 49.633 C 62.171 49.109,62.215 48.984,62.333 49.167 C 62.422 49.304,62.496 49.956,62.497 50.615 C 62.499 51.274,62.575 51.860,62.667 51.917 C 62.777 51.985,62.833 50.002,62.833 46.093 L 62.833 40.167 70.542 40.130 C 76.257 40.103,77.388 40.070,74.917 40.000 L 71.583 39.906 75.000 39.835 C 77.228 39.788,77.838 39.744,76.752 39.709 C 75.836 39.678,75.015 39.582,74.927 39.493 C 74.824 39.391,74.842 39.333,74.977 39.333 C 75.103 39.333,75.134 39.250,75.056 39.125 C 74.984 39.010,74.923 38.811,74.921 38.681 C 74.919 38.551,74.741 38.432,74.526 38.416 C 74.110 38.385,73.840 38.085,73.836 37.651 C 73.834 37.505,73.682 37.248,73.498 37.081 C 73.276 36.881,73.198 36.665,73.267 36.448 C 73.353 36.176,73.310 36.134,73.023 36.209 C 72.427 36.365,71.379 35.146,71.927 34.936 C 72.073 34.880,72.135 34.750,72.068 34.643 C 71.985 34.507,71.886 34.536,71.736 34.741 C 71.395 35.207,71.167 34.884,71.167 33.935 C 71.167 33.030,70.969 32.857,70.361 33.233 C 70.083 33.405,69.992 33.306,69.935 32.767 C 69.870 32.157,69.195 31.475,68.761 31.580 C 68.572 31.626,68.510 31.621,68.625 31.568 C 69.215 31.297,68.301 29.833,67.542 29.833 C 67.108 29.833,67.058 29.631,67.417 29.333 C 67.835 28.986,67.698 28.793,67.083 28.865 C 66.493 28.934,66.344 28.570,66.483 27.396 C 66.495 27.293,66.270 27.162,65.983 27.105 C 65.574 27.023,65.479 26.932,65.544 26.684 C 65.616 26.408,65.567 26.385,65.157 26.503 C 64.772 26.613,64.706 26.591,64.787 26.381 C 64.844 26.233,64.763 26.058,64.595 25.963 C 64.385 25.846,64.333 25.680,64.408 25.359 C 64.484 25.028,64.468 24.980,64.341 25.167 C 64.196 25.381,64.171 25.376,64.169 25.125 C 64.167 24.927,64.035 24.833,63.756 24.833 C 63.265 24.833,63.042 24.451,63.092 23.694 C 63.124 23.222,63.081 23.150,62.814 23.220 C 62.640 23.266,62.543 23.232,62.597 23.144 C 62.734 22.923,62.324 22.468,62.075 22.563 C 61.939 22.616,61.901 22.526,61.962 22.293 C 62.033 22.023,61.993 21.967,61.786 22.046 C 61.575 22.127,61.508 22.019,61.468 21.534 C 61.423 20.995,61.354 20.908,60.917 20.833 C 60.464 20.756,60.412 20.682,60.365 20.041 C 60.313 19.322,60.085 19.148,59.700 19.533 C 59.590 19.643,59.497 19.662,59.492 19.575 C 59.488 19.488,59.392 19.634,59.279 19.899 L 59.073 20.381 59.059 19.649 C 59.051 19.246,58.970 18.204,58.879 17.333 L 58.714 15.750 58.649 18.167 M21.833 17.279 C 21.198 17.413,21.188 17.477,21.211 21.408 C 21.222 23.429,21.257 24.307,21.288 23.357 C 21.361 21.151,22.000 20.231,22.000 22.333 C 22.000 22.685,22.084 23.000,22.186 23.034 C 22.409 23.108,22.703 24.634,22.686 25.625 C 22.679 26.015,22.752 26.333,22.847 26.333 C 22.942 26.333,22.979 26.400,22.928 26.481 C 22.878 26.562,22.952 26.724,23.093 26.841 C 23.233 26.958,23.310 27.154,23.263 27.277 C 23.216 27.400,23.237 27.500,23.311 27.500 C 23.384 27.500,23.444 27.613,23.444 27.750 C 23.444 27.897,23.292 28.000,23.073 28.000 C 22.869 28.000,22.659 28.113,22.606 28.250 C 22.524 28.464,22.782 28.497,24.380 28.481 C 26.079 28.463,28.809 28.253,28.139 28.192 C 27.785 28.160,27.667 27.836,27.867 27.448 C 27.965 27.258,27.963 27.072,27.861 26.948 C 27.772 26.839,27.675 26.525,27.646 26.250 C 27.617 25.975,27.497 25.602,27.380 25.421 C 27.263 25.240,27.165 24.865,27.164 24.588 C 27.162 24.310,27.014 23.521,26.833 22.833 C 26.653 22.146,26.504 21.353,26.503 21.071 C 26.501 20.790,26.393 20.227,26.263 19.821 C 26.133 19.415,25.980 18.807,25.924 18.470 C 25.861 18.088,25.714 17.827,25.536 17.781 C 25.342 17.730,25.385 17.696,25.667 17.675 L 26.083 17.646 25.702 17.492 C 25.246 17.309,22.424 17.153,21.833 17.279 M66.372 24.000 C 66.372 24.321,66.406 24.452,66.448 24.292 C 66.490 24.131,66.490 23.869,66.448 23.708 C 66.406 23.548,66.372 23.679,66.372 24.000 M21.205 25.667 C 21.205 25.988,21.240 26.119,21.282 25.958 C 21.323 25.798,21.323 25.535,21.282 25.375 C 21.240 25.215,21.205 25.346,21.205 25.667 M24.529 31.453 C 24.278 31.501,24.173 31.610,24.232 31.763 C 24.282 31.893,24.231 32.001,24.120 32.003 C 23.991 32.004,24.009 32.064,24.167 32.167 C 24.389 32.310,24.389 32.329,24.167 32.333 C 24.020 32.336,23.985 32.389,24.083 32.461 C 24.567 32.816,24.879 33.842,24.791 34.787 C 24.742 35.317,24.741 35.646,24.789 35.518 C 24.841 35.381,24.966 35.547,25.096 35.924 C 25.217 36.274,25.278 36.621,25.233 36.694 C 25.188 36.767,25.300 37.297,25.481 37.872 C 25.950 39.355,26.173 40.572,25.988 40.639 C 25.738 40.729,25.811 41.167,26.076 41.167 C 26.326 41.167,26.612 42.184,26.440 42.462 C 26.389 42.545,26.494 42.887,26.673 43.223 C 27.016 43.862,27.122 44.762,26.833 44.583 C 26.542 44.403,26.654 44.834,26.994 45.198 C 27.213 45.434,27.301 45.720,27.261 46.066 C 27.228 46.350,27.303 46.781,27.428 47.023 C 27.553 47.265,27.677 47.790,27.702 48.190 C 27.728 48.589,27.815 48.965,27.896 49.023 C 28.081 49.157,28.216 50.163,28.194 51.242 C 28.181 51.864,28.258 52.144,28.505 52.374 C 28.701 52.556,28.833 52.897,28.833 53.219 C 28.833 53.516,28.950 53.926,29.093 54.130 C 29.236 54.334,29.312 54.567,29.262 54.648 C 29.150 54.829,29.480 56.688,29.666 56.917 C 29.863 57.161,30.137 59.167,29.973 59.167 C 29.756 59.167,29.808 59.451,30.075 59.718 C 30.208 59.851,30.342 60.153,30.374 60.390 C 30.406 60.627,30.485 60.874,30.549 60.938 C 30.614 61.003,30.667 61.235,30.667 61.455 C 30.667 61.675,30.744 62.000,30.839 62.178 C 30.941 62.368,30.948 62.500,30.855 62.500 C 30.768 62.500,30.737 62.650,30.785 62.833 C 30.833 63.017,30.926 63.167,30.992 63.167 C 31.057 63.167,31.111 63.279,31.111 63.417 C 31.111 63.554,31.040 63.667,30.954 63.667 C 30.732 63.667,30.971 64.547,31.251 64.763 C 31.380 64.861,31.511 65.202,31.544 65.519 C 31.576 65.836,31.666 66.198,31.744 66.324 C 31.839 66.477,31.822 66.513,31.692 66.433 C 31.411 66.259,31.454 66.763,31.745 67.055 C 32.046 67.356,32.547 69.685,32.395 70.080 C 32.334 70.238,32.372 70.421,32.479 70.487 C 32.732 70.644,33.030 71.667,32.822 71.667 C 32.494 71.667,32.655 72.973,33.014 73.224 C 33.256 73.394,33.345 73.608,33.306 73.930 C 33.259 74.321,33.327 74.413,33.750 74.530 C 34.431 74.718,37.667 74.671,37.667 74.472 C 37.667 74.385,37.742 74.360,37.833 74.417 C 37.942 74.484,37.993 73.632,37.980 71.968 C 37.962 69.600,37.768 69.157,37.665 71.250 C 37.625 72.081,37.624 72.081,37.476 70.922 C 37.394 70.283,37.253 69.687,37.163 69.597 C 37.074 69.507,37.000 69.153,37.000 68.810 C 37.000 68.467,36.935 68.146,36.855 68.097 C 36.776 68.048,36.660 67.691,36.598 67.304 C 36.536 66.917,36.423 66.521,36.348 66.425 C 36.272 66.329,36.171 65.740,36.124 65.117 C 36.072 64.443,35.934 63.869,35.782 63.700 C 35.631 63.533,35.478 62.905,35.408 62.167 C 35.343 61.479,35.197 60.729,35.085 60.500 C 34.973 60.271,34.872 59.793,34.861 59.439 C 34.851 59.085,34.756 58.692,34.652 58.566 C 34.547 58.440,34.423 57.830,34.377 57.210 C 34.328 56.570,34.185 55.962,34.046 55.802 C 33.911 55.648,33.849 55.443,33.908 55.348 C 33.967 55.252,33.927 54.854,33.820 54.462 C 33.464 53.158,33.167 51.590,33.167 51.013 C 33.167 50.700,33.060 50.325,32.930 50.180 C 32.665 49.885,32.152 47.568,32.041 46.167 C 32.001 45.663,31.870 45.137,31.749 45.000 C 31.628 44.862,31.501 44.375,31.467 43.917 C 31.433 43.458,31.346 42.987,31.273 42.869 C 31.200 42.751,31.111 42.226,31.075 41.703 C 31.040 41.179,30.858 40.339,30.672 39.836 C 30.486 39.333,30.333 38.686,30.333 38.398 C 30.333 38.110,30.221 37.781,30.083 37.667 C 29.920 37.531,29.833 37.160,29.833 36.596 C 29.833 36.122,29.761 35.661,29.673 35.573 C 29.585 35.485,29.406 34.748,29.276 33.937 C 29.142 33.098,28.941 32.399,28.812 32.316 C 28.624 32.197,28.628 32.171,28.833 32.167 C 29.037 32.163,29.042 32.135,28.857 32.018 C 28.697 31.917,28.686 31.841,28.818 31.759 C 29.406 31.396,26.075 31.158,24.529 31.453 M49.743 34.511 C 49.661 34.645,49.684 34.676,49.808 34.599 C 49.934 34.521,50.008 34.641,50.023 34.948 C 50.043 35.370,50.053 35.377,50.120 35.022 C 50.208 34.561,49.938 34.196,49.743 34.511 M44.792 35.291 C 43.165 35.319,41.833 35.408,41.833 35.491 C 41.833 35.710,42.611 35.823,43.750 35.769 C 44.300 35.742,45.435 35.765,46.271 35.819 C 47.772 35.916,47.793 35.912,47.771 35.542 C 47.760 35.336,47.750 35.184,47.750 35.204 C 47.750 35.225,46.419 35.264,44.792 35.291 M50.940 35.616 C 50.752 35.803,50.826 36.000,51.083 36.000 C 51.221 36.000,51.333 35.929,51.333 35.843 C 51.333 35.633,51.073 35.482,50.940 35.616 M37.537 36.093 C 36.962 36.495,36.958 43.001,37.532 43.403 C 38.022 43.747,38.112 43.612,37.681 43.181 C 37.122 42.622,37.146 36.505,37.708 36.112 C 37.915 35.969,38.044 35.847,37.995 35.842 C 37.947 35.837,37.741 35.950,37.537 36.093 M74.583 39.500 C 74.527 39.592,74.339 39.667,74.167 39.667 C 73.994 39.667,73.807 39.592,73.750 39.500 C 73.690 39.403,73.863 39.333,74.167 39.333 C 74.471 39.333,74.644 39.403,74.583 39.500 M55.948 43.608 C 55.731 43.825,55.834 44.000,56.181 44.000 C 56.375 44.000,56.499 43.913,56.462 43.802 C 56.381 43.559,56.102 43.453,55.948 43.608 M59.257 46.988 C 59.134 47.188,59.447 47.386,59.669 47.248 C 59.856 47.133,59.733 46.833,59.500 46.833 C 59.419 46.833,59.310 46.903,59.257 46.988 M83.856 53.836 L 83.833 60.756 81.875 60.753 C 77.408 60.746,66.646 60.898,67.413 60.957 C 67.870 60.993,68.298 61.110,68.365 61.218 C 68.457 61.367,68.536 61.364,68.693 61.207 C 68.939 60.961,69.565 60.926,69.417 61.167 C 69.355 61.267,69.568 61.334,69.948 61.336 C 70.872 61.339,71.326 61.493,71.221 61.766 C 71.162 61.921,71.249 62.000,71.477 62.000 C 71.716 62.000,71.793 62.077,71.727 62.250 C 71.666 62.408,71.729 62.500,71.899 62.500 C 72.046 62.500,72.167 62.620,72.167 62.766 C 72.167 62.912,72.317 63.070,72.500 63.118 C 72.905 63.224,72.928 63.477,72.558 63.748 C 72.223 63.993,72.395 64.333,72.853 64.333 C 73.036 64.333,73.399 64.567,73.660 64.853 C 73.921 65.139,74.217 65.322,74.317 65.260 C 74.428 65.192,74.500 65.285,74.500 65.496 C 74.500 65.687,74.631 65.898,74.792 65.964 C 75.154 66.112,75.252 66.500,74.927 66.500 C 74.495 66.500,74.466 66.835,74.862 67.252 C 75.075 67.477,75.426 67.662,75.641 67.664 C 75.889 67.666,76.063 67.787,76.118 67.998 C 76.166 68.180,76.266 68.292,76.341 68.245 C 76.625 68.070,76.704 68.560,76.425 68.764 C 76.155 68.962,76.153 69.007,76.400 69.360 L 76.667 69.741 76.667 69.287 C 76.667 68.621,77.268 68.658,77.417 69.333 C 77.508 69.750,77.608 69.833,78.013 69.833 C 78.456 69.833,78.500 69.885,78.500 70.399 C 78.500 70.748,78.596 71.001,78.750 71.060 C 79.078 71.186,79.071 71.604,78.739 71.731 C 78.596 71.786,78.526 71.908,78.584 72.002 C 78.642 72.095,78.760 72.129,78.845 72.076 C 78.930 72.023,79.000 72.135,79.000 72.323 C 79.000 72.570,79.107 72.667,79.383 72.667 C 79.874 72.667,80.167 72.962,80.167 73.457 C 80.167 73.807,80.234 73.843,80.834 73.807 C 81.525 73.767,81.954 74.004,81.759 74.319 C 81.697 74.418,81.547 74.500,81.425 74.500 C 81.302 74.500,81.156 74.621,81.099 74.769 C 81.016 74.986,81.087 75.025,81.460 74.970 C 81.902 74.905,81.922 74.931,81.858 75.474 C 81.811 75.883,81.870 76.091,82.066 76.200 C 82.217 76.285,82.297 76.424,82.244 76.510 C 82.190 76.596,82.339 76.667,82.573 76.667 C 82.841 76.667,83.000 76.760,83.000 76.917 C 83.000 77.083,83.167 77.167,83.500 77.167 C 83.943 77.167,84.000 77.223,84.000 77.661 C 84.000 77.979,84.115 78.216,84.322 78.327 C 84.499 78.422,84.668 78.706,84.697 78.958 C 84.756 79.470,85.433 79.708,85.687 79.306 C 85.787 79.148,85.829 79.197,85.831 79.478 C 85.832 79.714,86.102 80.141,86.500 80.539 C 87.153 81.193,87.576 83.106,86.986 82.741 C 86.871 82.670,86.826 82.773,86.861 83.023 C 86.977 83.845,87.254 83.285,87.344 82.044 L 87.439 80.750 87.489 82.417 C 87.538 84.025,87.767 85.627,87.814 84.681 C 87.844 84.069,87.977 84.337,88.144 85.344 C 88.252 85.995,88.300 84.853,88.314 81.292 L 88.333 76.333 90.218 76.333 C 91.617 76.333,92.186 76.270,92.426 76.089 C 92.604 75.954,93.057 75.842,93.433 75.839 C 93.898 75.835,94.211 75.728,94.417 75.500 C 94.583 75.317,94.869 75.167,95.054 75.167 C 95.238 75.167,95.507 75.060,95.653 74.929 C 97.373 73.382,97.815 72.939,97.749 72.832 C 97.706 72.763,97.825 72.510,98.013 72.271 C 98.201 72.032,98.312 71.767,98.259 71.682 C 98.207 71.597,98.282 71.409,98.426 71.265 C 98.570 71.121,98.646 70.935,98.595 70.852 C 98.544 70.769,98.601 70.664,98.721 70.617 C 98.922 70.540,98.949 70.169,98.854 68.782 C 98.843 68.616,98.758 68.527,98.667 68.583 C 98.575 68.640,98.493 68.551,98.485 68.385 C 98.477 68.219,98.386 68.346,98.283 68.667 L 98.096 69.250 98.037 68.705 C 98.003 68.388,97.907 68.204,97.808 68.266 C 97.708 68.328,97.651 68.209,97.671 67.977 C 97.729 67.278,97.674 67.167,97.269 67.167 C 96.994 67.167,96.878 67.078,96.894 66.879 C 96.906 66.721,96.804 66.583,96.667 66.571 C 96.529 66.560,96.285 66.539,96.125 66.525 C 95.965 66.511,95.833 66.387,95.833 66.250 C 95.833 66.112,95.721 66.000,95.583 66.000 C 95.446 66.000,95.333 65.896,95.333 65.768 C 95.333 65.640,95.446 65.492,95.583 65.440 C 96.077 65.250,95.875 64.789,95.333 64.869 C 94.978 64.921,94.833 64.874,94.833 64.706 C 94.833 64.575,94.683 64.430,94.500 64.382 C 94.317 64.334,94.158 64.172,94.147 64.022 C 94.137 63.873,94.118 63.644,94.106 63.514 C 94.093 63.385,93.922 63.266,93.725 63.252 C 93.136 63.208,92.195 62.000,92.750 62.000 C 92.888 62.000,93.000 61.897,93.000 61.771 C 93.000 61.639,92.827 61.542,92.593 61.542 C 92.174 61.542,91.348 60.767,91.339 60.365 C 91.336 60.245,91.258 60.193,91.167 60.250 C 91.075 60.307,91.000 60.236,91.000 60.093 C 91.000 59.950,90.927 59.833,90.839 59.833 C 90.750 59.833,90.715 59.736,90.760 59.617 C 90.806 59.497,90.579 59.179,90.255 58.909 C 89.927 58.636,89.667 58.265,89.667 58.072 C 89.667 57.701,88.906 56.872,88.729 57.049 C 88.423 57.355,88.000 56.792,88.000 56.077 C 88.000 55.412,87.959 55.333,87.617 55.333 C 87.125 55.333,86.833 55.038,86.833 54.538 C 86.833 54.321,86.721 54.030,86.583 53.893 C 86.415 53.725,86.333 53.709,86.333 53.844 C 86.333 53.954,86.183 53.854,86.000 53.621 C 85.817 53.388,85.667 53.083,85.667 52.944 C 85.667 52.805,85.551 52.575,85.409 52.433 C 85.267 52.291,85.043 51.967,84.910 51.713 L 84.669 51.250 84.662 51.750 C 84.645 53.129,84.166 51.576,84.152 50.093 C 84.144 49.263,84.079 48.208,84.008 47.750 C 83.933 47.269,83.868 49.842,83.856 53.836 M61.583 50.833 C 61.447 51.053,61.647 51.365,61.845 51.243 C 62.047 51.118,62.046 50.667,61.843 50.667 C 61.757 50.667,61.640 50.742,61.583 50.833 M37.173 57.656 C 37.069 57.849,37.000 59.384,37.000 61.478 L 37.000 64.977 37.500 65.333 C 37.885 65.608,38.000 65.634,38.000 65.447 C 38.000 65.314,37.807 65.079,37.571 64.924 L 37.142 64.643 37.196 61.225 C 37.246 58.067,37.275 57.788,37.574 57.570 C 37.848 57.369,37.856 57.333,37.621 57.333 C 37.469 57.333,37.267 57.478,37.173 57.656 M71.667 61.167 C 71.667 61.258,71.559 61.333,71.427 61.333 C 71.294 61.333,71.140 61.258,71.083 61.167 C 71.027 61.075,71.135 61.000,71.323 61.000 C 71.512 61.000,71.667 61.075,71.667 61.167 M66.875 61.282 C 67.035 61.323,67.298 61.323,67.458 61.282 C 67.619 61.240,67.487 61.205,67.167 61.205 C 66.846 61.205,66.715 61.240,66.875 61.282 M76.924 69.488 C 76.810 69.673,77.073 69.872,77.227 69.718 C 77.385 69.559,77.356 69.333,77.177 69.333 C 77.090 69.333,76.977 69.403,76.924 69.488 M79.111 73.444 C 78.919 73.636,78.990 73.833,79.250 73.833 C 79.387 73.833,79.500 73.721,79.500 73.583 C 79.500 73.323,79.303 73.253,79.111 73.444 M79.833 75.991 C 79.833 76.078,79.477 76.176,79.042 76.211 L 78.250 76.273 79.125 76.303 C 79.805 76.327,80.000 76.278,80.000 76.083 C 80.000 75.946,79.962 75.833,79.917 75.833 C 79.871 75.833,79.833 75.904,79.833 75.991 M80.332 77.716 L 80.414 79.250 80.464 77.849 C 80.492 77.078,80.455 76.388,80.382 76.315 C 80.309 76.242,80.287 76.872,80.332 77.716 M83.059 77.750 C 83.073 77.979,83.158 78.166,83.250 78.166 C 83.342 78.166,83.427 77.979,83.441 77.750 C 83.455 77.509,83.374 77.333,83.250 77.333 C 83.126 77.333,83.045 77.509,83.059 77.750 M85.406 80.128 C 85.172 80.290,85.219 81.545,85.463 81.627 C 85.589 81.669,85.638 81.484,85.607 81.087 C 85.581 80.755,85.621 80.445,85.696 80.398 C 85.868 80.292,85.877 79.999,85.708 80.003 C 85.640 80.004,85.504 80.060,85.406 80.128 " stroke="none" fill="#ccdcfc" fill-rule="evenodd"></path><path id="path4" d="" stroke="none" fill="#f0100fc" fill-rule="evenodd"></path></g></svg>